<!-- Generated by IcoMoon.io -->
<svg version="1.1" xmlns="http://www.w3.org/2000/svg" width="24" height="24" viewBox="0 0 24 24">
<title>alert-triangle</title>
<path d="M23 17.5l-8.4-14.2c-0.4-0.7-1.1-1.2-1.9-1.4s-1.6-0.1-2.3 0.3c-0.4 0.2-0.8 0.6-1 1 0 0 0 0 0 0l-8.4 14.3c-0.8 1.4-0.3 3.3 1.1 4.1 0.4 0.3 0.9 0.4 1.4 0.4h17c0.8 0 1.6-0.3 2.1-0.9 0.6-0.6 0.9-1.3 0.9-2.1-0.1-0.5-0.2-1.1-0.5-1.5zM21.2 19.7c-0.2 0.2-0.5 0.3-0.7 0.3h-17c-0.2 0-0.3 0-0.5-0.1-0.5-0.3-0.6-0.9-0.4-1.4l8.5-14.1c0.1-0.1 0.2-0.3 0.3-0.3 0.5-0.3 1.1-0.1 1.4 0.3l8.5 14.1c0.1 0.1 0.1 0.3 0.1 0.5 0.1 0.3-0.1 0.5-0.2 0.7z"></path>
<path d="M12 8c-0.6 0-1 0.4-1 1v4c0 0.6 0.4 1 1 1s1-0.4 1-1v-4c0-0.6-0.4-1-1-1z"></path>
<path d="M11.3 16.3c-0.2 0.2-0.3 0.4-0.3 0.7s0.1 0.5 0.3 0.7c0.2 0.2 0.4 0.3 0.7 0.3s0.5-0.1 0.7-0.3c0.2-0.2 0.3-0.5 0.3-0.7s-0.1-0.5-0.3-0.7c-0.4-0.4-1-0.4-1.4 0z"></path>
</svg>
