<!-- Generated by IcoMoon.io -->
<svg version="1.1" xmlns="http://www.w3.org/2000/svg" width="24" height="24" viewBox="0 0 24 24">
<title>anchor</title>
<path d="M22 11h-3c-0.6 0-1 0.4-1 1s0.4 1 1 1h1.9c-0.5 4.2-3.8 7.5-7.9 7.9v-12c1.7-0.4 3-2 3-3.9 0-2.2-1.8-4-4-4s-4 1.8-4 4c0 1.9 1.3 3.4 3 3.9v12.1c-4.2-0.5-7.5-3.8-7.9-7.9h1.9c0.6 0 1-0.4 1-1s-0.4-1-1-1h-3c-0.6 0-1 0.4-1 1 0 6.1 4.9 11 11 11s11-4.9 11-11c0-0.7-0.4-1.1-1-1.1zM10 5c0-1.1 0.9-2 2-2s2 0.9 2 2-0.9 2-2 2c-1.1 0-2-0.9-2-2z"></path>
</svg>
