<!-- Generated by IcoMoon.io -->
<svg version="1.1" xmlns="http://www.w3.org/2000/svg" width="24" height="24" viewBox="0 0 24 24">
<title>aperture</title>
<path d="M20.9 18.4c1.3-1.8 2.1-4 2.1-6.4 0-1.5-0.3-3-0.9-4.3 0 0 0-0.1 0-0.1-1.5-3.5-4.8-6-8.8-6.5 0 0-0.1 0-0.1 0-0.4-0.1-0.8-0.1-1.2-0.1-3.6 0-6.8 1.7-8.8 4.4 0 0.1-0.1 0.1-0.1 0.2-1.3 1.8-2.1 4-2.1 6.4 0 1.5 0.3 3 0.9 4.4 0 0 0 0.1 0 0.1 1.5 3.4 4.8 6 8.7 6.5 0 0 0.1 0 0.1 0 0.4 0 0.8 0.1 1.2 0.1 3.6 0 6.8-1.7 8.8-4.4 0.1-0.1 0.2-0.2 0.2-0.3zM13.7 15h-3.5l-1.7-3 1.7-3h3.5l1.7 3-1.7 3zM3 12c0-1.4 0.3-2.8 0.9-4l4 7h-4.4c-0.3-0.9-0.5-1.9-0.5-3zM16 9h4.4c0.3 0.9 0.5 1.9 0.5 3 0 1.4-0.3 2.8-0.9 4l-4-7zM19.5 7h-8.1l2.2-3.8c2.5 0.4 4.6 1.8 5.9 3.8zM11.4 3l-4 7-2.2-3.8c1.5-1.8 3.7-3 6.2-3.2zM4.5 17h8.1l-2.2 3.8c-2.5-0.4-4.6-1.8-5.9-3.8zM12.6 21l4-7 2.2 3.8c-1.5 1.8-3.7 3-6.2 3.2z"></path>
</svg>
