<!-- Generated by IcoMoon.io -->
<svg version="1.1" xmlns="http://www.w3.org/2000/svg" width="24" height="24" viewBox="0 0 24 24">
<title>battery-charging</title>
<path d="M5 17h-2c-0.6 0-1-0.4-1-1v-8c0-0.6 0.4-1 1-1h3.2c0.6 0 1-0.4 1-1s-0.4-1-1-1h-3.2c-1.7 0-3 1.3-3 3v8c0 1.7 1.3 3 3 3h2c0.6 0 1-0.4 1-1s-0.4-1-1-1z"></path>
<path d="M17 5h-2c-0.6 0-1 0.4-1 1s0.4 1 1 1h2c0.6 0 1 0.4 1 1v8c0 0.6-0.4 1-1 1h-3.2c-0.6 0-1 0.4-1 1s0.4 1 1 1h3.2c1.7 0 3-1.3 3-3v-8c0-1.7-1.3-3-3-3z"></path>
<path d="M23 10c-0.6 0-1 0.4-1 1v2c0 0.6 0.4 1 1 1s1-0.4 1-1v-2c0-0.6-0.4-1-1-1z"></path>
<path d="M13.9 11.5c-0.2-0.3-0.5-0.5-0.9-0.5h-4.1l3-4.4c0.3-0.5 0.2-1.1-0.3-1.4s-1.1-0.2-1.4 0.3l-4 6c-0.2 0.3-0.2 0.7 0 1 0.1 0.3 0.4 0.5 0.8 0.5h4.1l-3 4.4c-0.3 0.5-0.2 1.1 0.3 1.4 0.2 0.1 0.4 0.2 0.6 0.2 0.3 0 0.6-0.2 0.8-0.4l4-6c0.2-0.4 0.3-0.7 0.1-1.1z"></path>
</svg>
