<!-- Generated by IcoMoon.io -->
<svg version="1.1" xmlns="http://www.w3.org/2000/svg" width="24" height="24" viewBox="0 0 24 24">
<title>bluetooth</title>
<path d="M13.4 12l4.8-4.8c0.4-0.4 0.4-1 0-1.4l-5.5-5.5c-0.3-0.3-0.7-0.4-1.1-0.2-0.4 0.1-0.6 0.5-0.6 0.9v8.6l-3.8-3.8c-0.4-0.4-1-0.4-1.4 0s-0.4 1 0 1.4l4.8 4.8-4.8 4.8c-0.4 0.4-0.4 1 0 1.4s1 0.4 1.4 0l3.8-3.8v8.6c0 0.4 0.2 0.8 0.6 0.9 0.1 0.1 0.3 0.1 0.4 0.1 0.3 0 0.5-0.1 0.7-0.3l5.5-5.5c0.4-0.4 0.4-1 0-1.4l-4.8-4.8zM13 3.4l3.1 3.1-3.1 3.1v-6.2zM13 20.6v-6.2l3.1 3.1-3.1 3.1z"></path>
</svg>
