<!-- Generated by IcoMoon.io -->
<svg version="1.1" xmlns="http://www.w3.org/2000/svg" width="24" height="24" viewBox="0 0 24 24">
<title>camera-off</title>
<path d="M21.7 20.3c0 0 0 0 0 0l-15-15c0 0 0 0 0 0l-5-5c-0.4-0.4-1-0.4-1.4 0s-0.4 1 0 1.4l3.3 3.3h-0.6c-1.7 0-3 1.3-3 3v11c0 1.7 1.3 3 3 3h17.6l1.7 1.7c0.2 0.2 0.5 0.3 0.7 0.3s0.5-0.1 0.7-0.3c0.4-0.4 0.4-1 0-1.4l-2-2zM9.5 11.3c0.1-0.1 0.1-0.1 0.2-0.2l4.2 4.2c-0.4 0.3-0.9 0.6-1.4 0.7-0.8 0.1-1.6 0-2.2-0.5-0.7-0.5-1.1-1.1-1.3-1.9-0.1-0.8 0.1-1.6 0.5-2.3zM3 20c-0.6 0-1-0.4-1-1v-11c0-0.6 0.4-1 1-1h2.6l2.7 2.7c-0.2 0.2-0.3 0.3-0.4 0.5-0.8 1.1-1 2.4-0.8 3.7s1 2.5 2.1 3.2c0.8 0.6 1.8 0.9 2.8 0.9 0.3 0 0.6 0 0.9-0.1 0.9-0.2 1.7-0.6 2.4-1.2l3.3 3.3h-15.6z"></path>
<path d="M21 5h-3.5l-1.7-2.6c-0.2-0.2-0.5-0.4-0.8-0.4h-6c-0.6 0-1 0.4-1 1s0.4 1 1 1h5.5l1.7 2.6c0.2 0.2 0.5 0.4 0.8 0.4h4c0.6 0 1 0.4 1 1v9.3c0 0.6 0.4 1 1 1s1-0.4 1-1v-9.3c0-1.7-1.3-3-3-3z"></path>
</svg>
