<!-- Generated by IcoMoon.io -->
<svg version="1.1" xmlns="http://www.w3.org/2000/svg" width="24" height="24" viewBox="0 0 24 24">
<title>cast</title>
<path d="M2.2 15.1c-0.5-0.1-1.1 0.3-1.2 0.8s0.2 1.1 0.8 1.2c1.6 0.3 2.8 1.5 3.1 3.1 0.1 0.5 0.5 0.8 1 0.8 0.1 0 0.1 0 0.2 0 0.5-0.1 0.9-0.6 0.8-1.2-0.5-2.4-2.3-4.2-4.7-4.7z"></path>
<path d="M20 3h-16c-1.7 0-3 1.3-3 3v2c0 0.6 0.4 1 1 1s1-0.4 1-1v-2c0-0.6 0.4-1 1-1h16c0.6 0 1 0.4 1 1v12c0 0.6-0.4 1-1 1h-6c-0.6 0-1 0.4-1 1s0.4 1 1 1h6c1.7 0 3-1.3 3-3v-12c0-1.7-1.3-3-3-3z"></path>
<path d="M2.1 11.1c-0.5-0.1-1 0.3-1.1 0.9-0.1 0.5 0.3 1 0.9 1.1 3.7 0.4 6.6 3.3 7.1 7.1 0 0.4 0.4 0.8 0.9 0.8 0 0 0.1 0 0.1 0 0.5-0.1 0.9-0.6 0.9-1.1-0.5-4.7-4.1-8.3-8.8-8.8z"></path>
<path d="M1.3 19.3c-0.2 0.2-0.3 0.4-0.3 0.7s0.1 0.5 0.3 0.7c0.2 0.2 0.4 0.3 0.7 0.3s0.5-0.1 0.7-0.3c0.2-0.2 0.3-0.4 0.3-0.7s-0.1-0.5-0.3-0.7c-0.4-0.4-1-0.4-1.4 0z"></path>
</svg>
