<!-- Generated by IcoMoon.io -->
<svg version="1.1" xmlns="http://www.w3.org/2000/svg" width="24" height="24" viewBox="0 0 24 24">
<title>check-circle</title>
<path d="M22 10.1c-0.6 0-1 0.4-1 1v0.9c0 5-4 9-9 9 0 0 0 0 0 0-5 0-9-4-9-9s4-9 9-9c0 0 0 0 0 0 1.3 0 2.5 0.3 3.7 0.8 0.5 0.2 1.1 0 1.3-0.5s0-1.1-0.5-1.3c-1.4-0.6-2.9-1-4.5-1 0 0 0 0 0 0-6.1 0-11 4.9-11 11s4.9 11 11 11c0 0 0 0 0 0 6.1 0 11-4.9 11-11v-0.9c0-0.6-0.4-1-1-1z"></path>
<path d="M9.7 10.3c-0.4-0.4-1-0.4-1.4 0s-0.4 1 0 1.4l3 3c0.2 0.2 0.4 0.3 0.7 0.3s0.5-0.1 0.7-0.3l10-10c0.4-0.4 0.4-1 0-1.4s-1-0.4-1.4 0l-9.3 9.3-2.3-2.3z"></path>
</svg>
