<!-- Generated by IcoMoon.io -->
<svg version="1.1" xmlns="http://www.w3.org/2000/svg" width="24" height="24" viewBox="0 0 24 24">
<title>chevrons-up</title>
<path d="M7.7 11.7l4.3-4.3 4.3 4.3c0.2 0.2 0.5 0.3 0.7 0.3s0.5-0.1 0.7-0.3c0.4-0.4 0.4-1 0-1.4l-5-5c-0.4-0.4-1-0.4-1.4 0l-5 5c-0.4 0.4-0.4 1 0 1.4s1 0.4 1.4 0z"></path>
<path d="M12.7 12.3c-0.4-0.4-1-0.4-1.4 0l-5 5c-0.4 0.4-0.4 1 0 1.4s1 0.4 1.4 0l4.3-4.3 4.3 4.3c0.2 0.2 0.5 0.3 0.7 0.3s0.5-0.1 0.7-0.3c0.4-0.4 0.4-1 0-1.4l-5-5z"></path>
</svg>
