<!-- Generated by IcoMoon.io -->
<svg version="1.1" xmlns="http://www.w3.org/2000/svg" width="24" height="24" viewBox="0 0 24 24">
<title>chevrons-left</title>
<path d="M7.4 12l4.3-4.3c0.4-0.4 0.4-1 0-1.4s-1-0.4-1.4 0l-5 5c-0.4 0.4-0.4 1 0 1.4l5 5c0.2 0.2 0.5 0.3 0.7 0.3s0.5-0.1 0.7-0.3c0.4-0.4 0.4-1 0-1.4l-4.3-4.3z"></path>
<path d="M14.4 12l4.3-4.3c0.4-0.4 0.4-1 0-1.4s-1-0.4-1.4 0l-5 5c-0.4 0.4-0.4 1 0 1.4l5 5c0.2 0.2 0.5 0.3 0.7 0.3s0.5-0.1 0.7-0.3c0.4-0.4 0.4-1 0-1.4l-4.3-4.3z"></path>
</svg>
