<!-- Generated by IcoMoon.io -->
<svg version="1.1" xmlns="http://www.w3.org/2000/svg" width="24" height="24" viewBox="0 0 24 24">
<title>chrome</title>
<path d="M22.1 7.7c0-0.1 0-0.1 0 0-1.8-4-5.6-6.7-10.1-6.7-3.6 0-6.8 1.7-8.8 4.4 0 0.1-0.1 0.1-0.1 0.2-1.3 1.8-2.1 4-2.1 6.4 0 5.6 4.2 10.2 9.6 10.9 0 0 0.1 0 0.1 0 0.4 0 0.8 0.1 1.2 0.1 6.1 0 11-4.9 11-11 0.1-1.5-0.2-3-0.8-4.3zM12 3c3.1 0 5.9 1.6 7.5 4h-7.5c-2.1 0-3.8 1.3-4.6 3l-2.2-3.8c1.6-2 4.1-3.2 6.8-3.2zM15 12c0 1.7-1.3 3-3 3s-3-1.3-3-3 1.3-3 3-3 3 1.3 3 3zM3 12c0-1.4 0.3-2.8 0.9-4l3.7 6.5c0 0 0 0.1 0.1 0.1 0.9 1.4 2.5 2.4 4.3 2.4 0.2 0 0.4 0 0.6-0.1l-2.3 3.9c-4.1-0.7-7.3-4.4-7.3-8.8zM12.6 21l3.7-6.5c0 0 0-0.1 0-0.1 0.4-0.7 0.6-1.5 0.6-2.4 0-1.1-0.4-2.2-1-3h4.5c0.3 0.9 0.5 1.9 0.5 3 0.1 4.8-3.6 8.7-8.3 9z"></path>
</svg>
