<!-- Generated by IcoMoon.io -->
<svg version="1.1" xmlns="http://www.w3.org/2000/svg" width="24" height="24" viewBox="0 0 24 24">
<title>cloud-snow</title>
<path d="M23.5 10.6c-1-2.2-3.1-3.6-5.5-3.6h-0.5c-1.5-4.4-6.2-6.9-10.7-5.7-4.9 1.2-7.8 6.1-6.5 11 0.5 1.9 1.6 3.6 3.1 4.8 0.4 0.3 1.1 0.3 1.4-0.2 0.3-0.4 0.3-1.1-0.2-1.4-1.2-0.9-2-2.3-2.4-3.7-1-3.7 1.3-7.6 5-8.5 3.7-1 7.6 1.3 8.5 5 0.1 0.4 0.5 0.8 1 0.8h1.3c1.6 0 3 0.9 3.7 2.4 0.4 1 0.5 2.1 0.1 3.1s-1.1 1.8-2.1 2.2c-0.5 0.2-0.7 0.8-0.5 1.3 0.2 0.4 0.5 0.6 0.9 0.6 0.1 0 0.3 0 0.4-0.1 1.5-0.6 2.6-1.8 3.2-3.3 0.5-1.6 0.4-3.2-0.2-4.7z"></path>
<path d="M7.3 15.3c-0.2 0.2-0.3 0.4-0.3 0.7s0.1 0.5 0.3 0.7c0.2 0.2 0.4 0.3 0.7 0.3s0.5-0.1 0.7-0.3c0.2-0.2 0.3-0.4 0.3-0.7s-0.1-0.5-0.3-0.7c-0.4-0.4-1-0.4-1.4 0z"></path>
<path d="M7.3 19.3c-0.2 0.2-0.3 0.4-0.3 0.7s0.1 0.5 0.3 0.7c0.2 0.2 0.4 0.3 0.7 0.3s0.5-0.1 0.7-0.3c0.2-0.2 0.3-0.4 0.3-0.7s-0.1-0.5-0.3-0.7c-0.4-0.4-1-0.4-1.4 0z"></path>
<path d="M11.3 17.3c-0.2 0.2-0.3 0.4-0.3 0.7s0.1 0.5 0.3 0.7c0.2 0.2 0.4 0.3 0.7 0.3s0.5-0.1 0.7-0.3c0.2-0.2 0.3-0.5 0.3-0.7s-0.1-0.5-0.3-0.7c-0.4-0.4-1-0.4-1.4 0z"></path>
<path d="M11.3 21.3c-0.2 0.2-0.3 0.4-0.3 0.7s0.1 0.5 0.3 0.7c0.2 0.2 0.4 0.3 0.7 0.3s0.5-0.1 0.7-0.3c0.2-0.2 0.3-0.5 0.3-0.7s-0.1-0.5-0.3-0.7c-0.4-0.4-1-0.4-1.4 0z"></path>
<path d="M15.3 15.3c-0.2 0.2-0.3 0.4-0.3 0.7s0.1 0.5 0.3 0.7c0.2 0.2 0.5 0.3 0.7 0.3s0.5-0.1 0.7-0.3c0.2-0.2 0.3-0.5 0.3-0.7s-0.1-0.5-0.3-0.7c-0.4-0.4-1-0.4-1.4 0z"></path>
<path d="M15.3 19.3c-0.2 0.2-0.3 0.4-0.3 0.7s0.1 0.5 0.3 0.7c0.2 0.2 0.5 0.3 0.7 0.3s0.5-0.1 0.7-0.3c0.2-0.2 0.3-0.5 0.3-0.7s-0.1-0.5-0.3-0.7c-0.4-0.4-1-0.4-1.4 0z"></path>
</svg>
