<!-- Generated by IcoMoon.io -->
<svg version="1.1" xmlns="http://www.w3.org/2000/svg" width="24" height="24" viewBox="0 0 24 24">
<title>cloud-lightning</title>
<path d="M23.9 10.8c-0.6-2.8-3.1-4.8-5.9-4.8 0 0 0 0 0 0h-0.5c-1.5-4.4-6.2-6.9-10.7-5.7-2.4 0.6-4.3 2.1-5.6 4.1-1.2 2.1-1.6 4.5-1 6.8 0.6 2.4 2.2 4.4 4.4 5.6 0.5 0.3 1.1 0.2 1.4-0.3s0.1-1.1-0.4-1.4c-1.7-0.9-2.9-2.5-3.4-4.4-0.5-1.8-0.2-3.6 0.8-5.3 0.9-1.6 2.5-2.8 4.3-3.2 3.7-1 7.6 1.3 8.5 5 0.1 0.4 0.5 0.8 1 0.8h1.2c0 0 0 0 0 0 1.9 0 3.5 1.3 3.9 3.2 0.4 2.2-1 4.3-3.1 4.7-0.5 0.1-0.9 0.6-0.8 1.2 0.1 0.5 0.5 0.8 1 0.8 0.1 0 0.1 0 0.2 0 3.2-0.7 5.3-3.9 4.7-7.1z"></path>
<path d="M15 16h-4.1l3-4.4c0.3-0.5 0.2-1.1-0.3-1.4s-1.1-0.2-1.4 0.3l-4 6c-0.2 0.3-0.2 0.7 0 1 0.1 0.3 0.4 0.5 0.8 0.5h4.1l-3 4.4c-0.3 0.5-0.2 1.1 0.3 1.4 0.2 0.1 0.4 0.2 0.6 0.2 0.3 0 0.6-0.2 0.8-0.4l4-6c0.2-0.3 0.2-0.7 0-1s-0.4-0.6-0.8-0.6z"></path>
</svg>
