<!-- Generated by IcoMoon.io -->
<svg version="1.1" xmlns="http://www.w3.org/2000/svg" width="24" height="24" viewBox="0 0 24 24">
<title>cloud-off</title>
<path d="M9.6 5c3 0.3 5.4 2.4 6.2 5.2 0.1 0.4 0.5 0.8 1 0.8h1.2c0 0 0 0 0 0 0.5 0 1.1 0.1 1.6 0.3 2 0.9 3 3.2 2.1 5.2-0.2 0.5 0 1.1 0.5 1.3 0.1 0.1 0.3 0.1 0.4 0.1 0.4 0 0.8-0.2 0.9-0.6 1.3-3-0.1-6.6-3.2-7.9-0.7-0.2-1.5-0.4-2.3-0.4h-0.5c-1.2-3.3-4.2-5.7-7.7-6-0.6 0-1 0.4-1.1 0.9-0.1 0.6 0.4 1 0.9 1.1z"></path>
<path d="M1.7 0.3c-0.4-0.4-1-0.4-1.4 0s-0.4 1 0 1.4l3.1 3.1c-1.5 1.2-2.6 2.8-3.2 4.7-0.7 2.3-0.4 4.7 0.8 6.8 1.6 2.9 4.6 4.7 7.9 4.7 0 0 0.1 0 0.1 0h9c0.5 0 0.9-0.1 1.4-0.2l2.9 2.9c0.2 0.2 0.5 0.3 0.7 0.3s0.5-0.1 0.7-0.3c0.4-0.4 0.4-1 0-1.4l-22-22zM9 19c-2.6 0.1-5-1.3-6.2-3.6-0.9-1.6-1.1-3.5-0.6-5.3 0.4-1.6 1.4-2.9 2.7-3.8l12.7 12.7h-8.6z"></path>
</svg>
