<!-- Generated by IcoMoon.io -->
<svg version="1.1" xmlns="http://www.w3.org/2000/svg" width="24" height="24" viewBox="0 0 24 24">
<title>cloud-rain</title>
<path d="M16 12c-0.6 0-1 0.4-1 1v8c0 0.6 0.4 1 1 1s1-0.4 1-1v-8c0-0.6-0.4-1-1-1z"></path>
<path d="M8 12c-0.6 0-1 0.4-1 1v8c0 0.6 0.4 1 1 1s1-0.4 1-1v-8c0-0.6-0.4-1-1-1z"></path>
<path d="M12 14c-0.6 0-1 0.4-1 1v8c0 0.6 0.4 1 1 1s1-0.4 1-1v-8c0-0.6-0.4-1-1-1z"></path>
<path d="M23.5 9.6c-1-2.2-3.1-3.6-5.5-3.6h-0.5c-1.5-4.4-6.2-6.9-10.7-5.7-4.9 1.2-7.8 6.1-6.5 11 0.5 1.9 1.6 3.6 3.1 4.8 0.4 0.3 1.1 0.3 1.4-0.2 0.3-0.4 0.3-1.1-0.2-1.4-1.2-0.9-2-2.3-2.4-3.7-1-3.7 1.3-7.6 5-8.5 3.7-1 7.6 1.3 8.5 5 0.1 0.4 0.5 0.8 1 0.8h1.3c1.6 0 3 0.9 3.7 2.4 0.4 1 0.5 2.1 0.1 3.1s-1.1 1.8-2.1 2.2c-0.5 0.2-0.7 0.8-0.5 1.3 0.2 0.4 0.5 0.6 0.9 0.6 0.1 0 0.3 0 0.4-0.1 1.5-0.6 2.6-1.8 3.2-3.3 0.5-1.6 0.4-3.2-0.2-4.7z"></path>
</svg>
