<!-- Generated by IcoMoon.io -->
<svg version="1.1" xmlns="http://www.w3.org/2000/svg" width="24" height="24" viewBox="0 0 24 24">
<title>codepen</title>
<path d="M23 15.7c0-0.1 0-0.1 0-0.2v-7c0-0.1 0-0.1 0-0.2 0 0 0 0 0-0.1s-0.1-0.2-0.1-0.3c0 0 0 0 0 0s0 0 0 0c-0.1-0.1-0.1-0.2-0.2-0.2v0c0 0 0 0 0 0l-10-6.5c0 0-0.1 0-0.1 0s-0.1 0-0.1 0c-0.2-0.1-0.5-0.1-0.7 0 0 0-0.1 0-0.1 0s-0.1 0-0.1 0l-10 6.5c-0.2 0-0.3 0.1-0.4 0.2 0 0 0 0 0 0s0 0 0 0c-0.1 0.2-0.1 0.3-0.2 0.4 0 0 0 0 0 0.1s0 0.1 0 0.2v7c0 0.1 0 0.1 0 0.2 0 0 0 0 0 0.1s0.1 0.2 0.1 0.3c0 0 0 0 0 0s0 0 0 0c0.1 0.1 0.1 0.2 0.2 0.2l10 6.5c0 0 0.1 0 0.1 0s0.1 0 0.1 0 0.2 0.1 0.3 0.1 0.2 0 0.3-0.1c0 0 0.1 0 0.1 0s0.1 0 0.1 0l10-6.5c0.1-0.1 0.2-0.2 0.3-0.2 0 0 0 0 0 0s0 0 0 0c0.3-0.3 0.3-0.4 0.4-0.5 0 0 0 0 0 0zM3 10.4l2.3 1.6-2.3 1.6v-3.2zM12 14.3l-3.3-2.3 3.3-2.3 3.3 2.3-3.3 2.3zM13 8v-4.2l7.2 4.7-3.2 2.3-4-2.8zM11 8l-4 2.8-3.2-2.3 7.2-4.7v4.2zM7 13.2l4 2.8v4.1l-7.2-4.7 3.2-2.2zM13 16l4-2.8 3.2 2.2-7.2 4.8v-4.2zM18.7 12l2.3-1.6v3.2l-2.3-1.6z"></path>
</svg>
