<!-- Generated by IcoMoon.io -->
<svg version="1.1" xmlns="http://www.w3.org/2000/svg" width="24" height="24" viewBox="0 0 24 24">
<title>compass</title>
<path d="M12 1c-6.1 0-11 4.9-11 11s4.9 11 11 11 11-4.9 11-11-4.9-11-11-11zM12 21c-5 0-9-4-9-9s4-9 9-9c5 0 9 4 9 9s-4 9-9 9z"></path>
<path d="M15.9 6.8l-6.3 2.1c-0.3 0.1-0.6 0.4-0.7 0.7l-2.1 6.4c-0.1 0.4 0 0.8 0.2 1s0.4 0.3 0.7 0.3c0.1 0 0.2 0 0.3-0.1l6.4-2.1c0.3-0.1 0.5-0.3 0.6-0.6l2.1-6.4c0.1-0.4 0-0.8-0.2-1-0.2-0.3-0.6-0.4-1-0.3zM13.3 13.3l-4 1.3 1.3-4 4-1.3-1.3 4z"></path>
</svg>
