<!-- Generated by IcoMoon.io -->
<svg version="1.1" xmlns="http://www.w3.org/2000/svg" width="24" height="24" viewBox="0 0 24 24">
<title>delete</title>
<path d="M21 3h-13c-0.3 0-0.6 0.1-0.8 0.3l-7 8c-0.3 0.4-0.3 0.9 0 1.3l7 8c0.2 0.3 0.5 0.4 0.8 0.4h13c1.7 0 3-1.3 3-3v-12c0-1.7-1.3-3-3-3zM22 18c0 0.6-0.4 1-1 1h-12.5l-6.1-7 6.1-7h12.5c0.6 0 1 0.4 1 1v12z"></path>
<path d="M18.7 8.3c-0.4-0.4-1-0.4-1.4 0l-2.3 2.3-2.3-2.3c-0.4-0.4-1-0.4-1.4 0s-0.4 1 0 1.4l2.3 2.3-2.3 2.3c-0.4 0.4-0.4 1 0 1.4 0.2 0.2 0.5 0.3 0.7 0.3s0.5-0.1 0.7-0.3l2.3-2.3 2.3 2.3c0.2 0.2 0.5 0.3 0.7 0.3s0.5-0.1 0.7-0.3c0.4-0.4 0.4-1 0-1.4l-2.3-2.3 2.3-2.3c0.4-0.4 0.4-1 0-1.4z"></path>
</svg>
