<!-- Generated by IcoMoon.io -->
<svg version="1.1" xmlns="http://www.w3.org/2000/svg" width="24" height="24" viewBox="0 0 24 24">
<title>dollar-sign</title>
<path d="M14.5 11h-1.5v-5h4c0.6 0 1-0.4 1-1s-0.4-1-1-1h-4v-3c0-0.6-0.4-1-1-1s-1 0.4-1 1v3h-1.5c-2.5 0-4.5 2-4.5 4.5s2 4.5 4.5 4.5h1.5v5h-5c-0.6 0-1 0.4-1 1s0.4 1 1 1h5v3c0 0.6 0.4 1 1 1s1-0.4 1-1v-3h1.5c2.5 0 4.5-2 4.5-4.5s-2-4.5-4.5-4.5zM9.5 11c-1.4 0-2.5-1.1-2.5-2.5s1.1-2.5 2.5-2.5h1.5v5h-1.5zM14.5 18h-1.5v-5h1.5c1.4 0 2.5 1.1 2.5 2.5s-1.1 2.5-2.5 2.5z"></path>
</svg>
