<!-- Generated by IcoMoon.io -->
<svg version="1.1" xmlns="http://www.w3.org/2000/svg" width="24" height="24" viewBox="0 0 24 24">
<title>droplet</title>
<path d="M18.4 7.6l-5.7-5.6c-0.2-0.2-0.4-0.3-0.7-0.3v0c-0.3 0-0.5 0.1-0.7 0.3l-5.6 5.6c0 0 0 0 0 0-1.8 1.7-2.7 4-2.7 6.4s0.9 4.7 2.6 6.4c1.7 1.7 4 2.6 6.4 2.6 0 0 0 0 0 0 2.4 0 4.7-0.9 6.4-2.6 3.5-3.5 3.5-9.2 0-12.8zM17 19c-1.4 1.3-3.1 2-5 2 0 0 0 0 0 0-1.9 0-3.6-0.7-4.9-2-1.4-1.4-2.1-3.1-2.1-5s0.7-3.6 2-4.9c0 0 0 0 0 0l4.9-5 5 5c2.8 2.7 2.8 7.1 0.1 9.9z"></path>
</svg>
