<!-- Generated by IcoMoon.io -->
<svg version="1.1" xmlns="http://www.w3.org/2000/svg" width="24" height="24" viewBox="0 0 24 24">
<title>eye-off</title>
<path d="M10.1 5.2c0.6-0.1 1.3-0.2 1.9-0.2 5.4 0 8.9 5.4 9.9 7-0.5 0.9-1.1 1.8-1.8 2.5-0.4 0.4-0.3 1.1 0.1 1.4 0.2 0.2 0.4 0.2 0.6 0.2 0.3 0 0.6-0.1 0.8-0.4 0.9-1 1.6-2.2 2.3-3.4 0.2-0.3 0.2-0.6 0-0.9-0.2-0.2-4.4-8.4-11.9-8.4-0.8 0-1.6 0.1-2.3 0.3-0.6 0.1-0.9 0.6-0.8 1.2 0.2 0.5 0.7 0.8 1.2 0.7z"></path>
<path d="M23.7 22.3l-22-22c-0.4-0.4-1-0.4-1.4 0s-0.4 1 0 1.4l4.3 4.3c-1.8 1.6-3.3 3.4-4.5 5.5-0.2 0.3-0.2 0.6 0 0.9 0.2 0.4 4.4 8.6 11.9 8.6 2.1 0 4.1-0.6 5.8-1.8l4.5 4.5c0.2 0.2 0.5 0.3 0.7 0.3s0.5-0.1 0.7-0.3c0.4-0.4 0.4-1 0-1.4zM10 11.4l2.5 2.5c-0.2 0.1-0.4 0.1-0.6 0.1-0.5 0-1-0.2-1.4-0.5-0.4-0.4-0.6-0.9-0.6-1.4 0-0.2 0.1-0.4 0.1-0.7zM12 19c-5.4 0-8.9-5.4-9.9-7 1-1.8 2.3-3.3 3.9-4.6l2.5 2.6c-0.4 0.7-0.6 1.5-0.6 2.3 0 1.1 0.5 2.1 1.3 2.8 0.7 0.7 1.7 1.1 2.7 1.1 0 0 0.1 0 0.1 0 0.7 0 1.4-0.3 2-0.6l2.3 2.3c-1.3 0.7-2.8 1.1-4.3 1.1z"></path>
</svg>
