<!-- Generated by IcoMoon.io -->
<svg version="1.1" xmlns="http://www.w3.org/2000/svg" width="24" height="24" viewBox="0 0 24 24">
<title>fast-forward</title>
<path d="M22.6 11.2l-9-7c-0.3-0.2-0.7-0.3-1.1-0.1-0.3 0.2-0.5 0.5-0.5 0.9v14c0 0.4 0.2 0.7 0.6 0.9 0.1 0.1 0.3 0.1 0.4 0.1 0.2 0 0.4-0.1 0.6-0.2l9-7c0.2-0.2 0.4-0.5 0.4-0.8s-0.1-0.6-0.4-0.8zM14 17v-10l6.4 5-6.4 5z"></path>
<path d="M2.6 4.2c-0.3-0.2-0.7-0.3-1-0.1-0.4 0.2-0.6 0.5-0.6 0.9v14c0 0.4 0.2 0.7 0.6 0.9 0.1 0.1 0.3 0.1 0.4 0.1 0.2 0 0.4-0.1 0.6-0.2l9-7c0.2-0.2 0.4-0.5 0.4-0.8s-0.1-0.6-0.4-0.8l-9-7zM3 17v-10l6.4 5-6.4 5z"></path>
</svg>
