<!-- Generated by IcoMoon.io -->
<svg version="1.1" xmlns="http://www.w3.org/2000/svg" width="24" height="24" viewBox="0 0 24 24">
<title>feather</title>
<path d="M20.9 3c-2.7-2.7-7.2-2.7-9.9 0l-6.7 6.8c-0.2 0.2-0.3 0.4-0.3 0.7v8.1l-2.7 2.7c-0.4 0.4-0.4 1 0 1.4 0.2 0.2 0.4 0.3 0.7 0.3s0.5-0.1 0.7-0.3l2.7-2.7h8.1c0.3 0 0.5-0.1 0.7-0.3l6.7-6.8c2.8-2.7 2.8-7.1 0-9.9zM13.1 18h-5.7l2-2h5.7l-2 2zM19.5 11.5c0 0 0 0 0 0l-2.4 2.5c0 0 0 0-0.1 0h-5.6l5.3-5.3c0.4-0.4 0.4-1 0-1.4s-1-0.4-1.4 0l-7 7c0 0 0 0 0 0l-2.3 2.3v-5.7l6.5-6.5c2-2 5.1-2 7.1 0 1.9 2 1.9 5.2-0.1 7.1z"></path>
</svg>
