<!-- Generated by IcoMoon.io -->
<svg version="1.1" xmlns="http://www.w3.org/2000/svg" width="24" height="24" viewBox="0 0 24 24">
<title>file-text</title>
<path d="M20.9 7.6c-0.1-0.1-0.1-0.2-0.2-0.3l-6-6c-0.1-0.1-0.2-0.2-0.3-0.2-0.1-0.1-0.3-0.1-0.4-0.1h-8c-1.7 0-3 1.3-3 3v16c0 1.7 1.3 3 3 3h12c1.7 0 3-1.3 3-3v-12c0-0.1 0-0.3-0.1-0.4zM15 4.4l2.6 2.6h-2.6v-2.6zM18 21h-12c-0.6 0-1-0.4-1-1v-16c0-0.6 0.4-1 1-1h7v5c0 0.6 0.4 1 1 1h5v11c0 0.6-0.4 1-1 1z"></path>
<path d="M16 12h-8c-0.6 0-1 0.4-1 1s0.4 1 1 1h8c0.6 0 1-0.4 1-1s-0.4-1-1-1z"></path>
<path d="M16 16h-8c-0.6 0-1 0.4-1 1s0.4 1 1 1h8c0.6 0 1-0.4 1-1s-0.4-1-1-1z"></path>
<path d="M8 10h2c0.6 0 1-0.4 1-1s-0.4-1-1-1h-2c-0.6 0-1 0.4-1 1s0.4 1 1 1z"></path>
</svg>
