<!-- Generated by IcoMoon.io -->
<svg version="1.1" xmlns="http://www.w3.org/2000/svg" width="24" height="24" viewBox="0 0 24 24">
<title>film</title>
<path d="M19.8 1h-15.6c-1.8 0-3.2 1.4-3.2 3.2v15.6c0 1.8 1.4 3.2 3.2 3.2h15.6c1.8 0 3.2-1.4 3.2-3.2v-15.6c0-1.8-1.4-3.2-3.2-3.2zM18 8h3v3h-3v-3zM16 11h-8v-8h8v8zM6 11h-3v-3h3v3zM3 13h3v3h-3v-3zM8 13h8v8h-8v-8zM18 13h3v3h-3v-3zM21 4.2v1.8h-3v-3h1.8c0.7 0 1.2 0.5 1.2 1.2zM4.2 3h1.8v3h-3v-1.8c0-0.7 0.5-1.2 1.2-1.2zM3 19.8v-1.8h3v3h-1.8c-0.7 0-1.2-0.5-1.2-1.2zM19.8 21h-1.8v-3h3v1.8c0 0.7-0.5 1.2-1.2 1.2z"></path>
</svg>
