<!-- Generated by IcoMoon.io -->
<svg version="1.1" xmlns="http://www.w3.org/2000/svg" width="24" height="24" viewBox="0 0 24 24">
<title>flag</title>
<path d="M20.4 2.1c-0.4-0.2-0.8-0.1-1.1 0.2 0 0-0.9 0.7-3.3 0.7-1.3 0-2.4-0.5-3.6-0.9-1.3-0.6-2.7-1.1-4.4-1.1-3.2 0-4.5 1.1-4.7 1.3s-0.3 0.4-0.3 0.7v19c0 0.6 0.4 1 1 1s1-0.4 1-1v-6.5c0.4-0.2 1.4-0.5 3-0.5 1.3 0 2.4 0.5 3.6 0.9 1.3 0.5 2.7 1.1 4.4 1.1 3.2 0 4.5-1.1 4.7-1.3s0.3-0.4 0.3-0.7v-12c0-0.4-0.2-0.7-0.6-0.9zM19 14.5c-0.4 0.2-1.4 0.5-3 0.5-1.3 0-2.4-0.5-3.6-0.9-1.3-0.6-2.7-1.1-4.4-1.1-1.3 0-2.3 0.2-3 0.4v-9.9c0.4-0.2 1.4-0.5 3-0.5 1.3 0 2.4 0.5 3.6 0.9 1.3 0.6 2.7 1.1 4.4 1.1 1.3 0 2.3-0.2 3-0.4v9.9z"></path>
</svg>
