<!-- Generated by IcoMoon.io -->
<svg version="1.1" xmlns="http://www.w3.org/2000/svg" width="24" height="24" viewBox="0 0 24 24">
<title>folder-minus</title>
<path d="M20 5h-8.5l-1.7-2.6c-0.2-0.2-0.5-0.4-0.8-0.4h-5c-1.7 0-3 1.3-3 3v14c0 1.7 1.3 3 3 3h16c1.7 0 3-1.3 3-3v-11c0-1.7-1.3-3-3-3zM21 19c0 0.6-0.4 1-1 1h-16c-0.6 0-1-0.4-1-1v-14c0-0.6 0.4-1 1-1h4.5l1.7 2.6c0.2 0.2 0.5 0.4 0.8 0.4h9c0.6 0 1 0.4 1 1v11z"></path>
<path d="M15 13h-6c-0.6 0-1 0.4-1 1s0.4 1 1 1h6c0.6 0 1-0.4 1-1s-0.4-1-1-1z"></path>
</svg>
