<!-- Generated by IcoMoon.io -->
<svg version="1.1" xmlns="http://www.w3.org/2000/svg" width="24" height="24" viewBox="0 0 24 24">
<title>gift</title>
<path d="M22 6h-2.4c0.3-0.5 0.4-1 0.4-1.5 0-1.9-1.6-3.5-3.5-3.5-2.3 0-3.7 1.6-4.5 3.1-0.8-1.5-2.2-3.1-4.5-3.1-1.9 0-3.5 1.6-3.5 3.5 0 0.5 0.1 1 0.4 1.5h-2.4c-0.6 0-1 0.4-1 1v5c0 0.6 0.4 1 1 1h1v9c0 0.6 0.4 1 1 1h16c0.6 0 1-0.4 1-1v-9h1c0.6 0 1-0.4 1-1v-5c0-0.6-0.4-1-1-1zM16.5 3c0.8 0 1.5 0.7 1.5 1.5s-0.7 1.5-1.5 1.5h-3.2c0.5-1.2 1.5-3 3.2-3zM6 4.5c0-0.8 0.7-1.5 1.5-1.5 1.7 0 2.7 1.8 3.2 3h-3.2c-0.8 0-1.5-0.7-1.5-1.5zM3 8h8v3h-8v-3zM5 13h6v8h-6v-8zM19 21h-6v-8h6v8zM21 11h-8v-3h8v3z"></path>
</svg>
