<!-- Generated by IcoMoon.io -->
<svg version="1.1" xmlns="http://www.w3.org/2000/svg" width="24" height="24" viewBox="0 0 24 24">
<title>git-merge</title>
<path d="M18 14c-1.8 0-3.4 1.3-3.8 3-3.7-0.4-6.7-3.4-7.1-7.1 1.7-0.5 3-2 3-3.8 0-2.2-1.8-4-4-4s-4.1 1.7-4.1 3.9c0 1.9 1.3 3.4 3 3.9v11.1c0 0.6 0.4 1 1 1s1-0.4 1-1v-6c1.7 2.2 4.2 3.7 7.1 4 0.4 1.7 2 3.1 3.9 3.1 2.2 0 4-1.8 4-4s-1.8-4.1-4-4.1zM4 6c0-1.1 0.9-2 2-2s2 0.9 2 2-0.9 2-2 2-2-0.9-2-2zM18 20c-1.1 0-2-0.9-2-2s0.9-2 2-2 2 0.9 2 2-0.9 2-2 2z"></path>
</svg>
