<!-- Generated by IcoMoon.io -->
<svg version="1.1" xmlns="http://www.w3.org/2000/svg" width="24" height="24" viewBox="0 0 24 24">
<title>git-branch</title>
<path d="M22 6c0-2.2-1.8-4-4-4s-4 1.8-4 4c0 1.8 1.3 3.4 3 3.8-0.4 3.7-3.4 6.7-7.1 7.1-0.4-1.4-1.5-2.5-2.8-2.8v-11.1c0-0.6-0.4-1-1-1s-1.1 0.4-1.1 1v11.1c-1.7 0.4-3 2-3 3.9 0 2.2 1.8 4 4 4 1.9 0 3.4-1.3 3.9-3 4.8-0.4 8.7-4.3 9.1-9.1 1.7-0.5 3-2 3-3.9zM6 20c-1.1 0-2-0.9-2-2s0.9-2 2-2 2 0.9 2 2-0.9 2-2 2zM18 8c-1.1 0-2-0.9-2-2s0.9-2 2-2 2 0.9 2 2-0.9 2-2 2z"></path>
</svg>
