<!-- Generated by IcoMoon.io -->
<svg version="1.1" xmlns="http://www.w3.org/2000/svg" width="24" height="24" viewBox="0 0 24 24">
<title>git-pull-request</title>
<path d="M19 14.1v-6.1c0-1.7-1.3-3-3-3h-3c-0.6 0-1 0.4-1 1s0.4 1 1 1h3c0.6 0 1 0.4 1 1v6.1c-1.7 0.4-3 2-3 3.9 0 2.2 1.8 4 4 4s4-1.8 4-4c0-1.9-1.3-3.4-3-3.9zM18 20c-1.1 0-2-0.9-2-2s0.9-2 2-2 2 0.9 2 2-0.9 2-2 2z"></path>
<path d="M6 2c-2.2 0-4 1.8-4 4 0 1.9 1.3 3.4 3 3.9v11.1c0 0.6 0.4 1 1 1s1-0.4 1-1v-11.1c1.7-0.4 3-2 3-3.9 0-2.2-1.8-4-4-4zM6 8c-1.1 0-2-0.9-2-2s0.9-2 2-2 2 0.9 2 2-0.9 2-2 2z"></path>
</svg>
