<!-- Generated by IcoMoon.io -->
<svg version="1.1" xmlns="http://www.w3.org/2000/svg" width="24" height="24" viewBox="0 0 24 24">
<title>gitlab</title>
<path d="M23.9 13.1l-3.7-11.2c-0.1-0.2-0.2-0.4-0.4-0.6-0.5-0.5-1.4-0.5-1.9 0-0.2 0.1-0.3 0.3-0.4 0.6l-2.2 6.8h-6.6l-2.2-6.8c-0.1-0.2-0.2-0.4-0.4-0.6-0.5-0.5-1.4-0.5-1.9 0-0.2 0.1-0.3 0.3-0.4 0.6l-3.7 11.2c-0.3 0.8 0 1.6 0.7 2.1l10.6 7.7c0.2 0.1 0.4 0.2 0.6 0.2s0.4-0.1 0.6-0.2l10.6-7.7c0.7-0.4 1-1.3 0.7-2.1zM12 20.9l-10-7.2 3.1-9.5 1.9 5.8c0.1 0.4 0.5 0.7 1 0.7h8c0.4 0 0.8-0.3 1-0.7l1.9-5.8 1.9 5.8 1.2 3.6-10 7.3z"></path>
</svg>
