<!-- Generated by IcoMoon.io -->
<svg version="1.1" xmlns="http://www.w3.org/2000/svg" width="24" height="24" viewBox="0 0 24 24">
<title>grid</title>
<path d="M10 2h-7c-0.6 0-1 0.4-1 1v7c0 0.6 0.4 1 1 1h7c0.6 0 1-0.4 1-1v-7c0-0.6-0.4-1-1-1zM9 9h-5v-5h5v5z"></path>
<path d="M21 2h-7c-0.6 0-1 0.4-1 1v7c0 0.6 0.4 1 1 1h7c0.6 0 1-0.4 1-1v-7c0-0.6-0.4-1-1-1zM20 9h-5v-5h5v5z"></path>
<path d="M21 13h-7c-0.6 0-1 0.4-1 1v7c0 0.6 0.4 1 1 1h7c0.6 0 1-0.4 1-1v-7c0-0.6-0.4-1-1-1zM20 20h-5v-5h5v5z"></path>
<path d="M10 13h-7c-0.6 0-1 0.4-1 1v7c0 0.6 0.4 1 1 1h7c0.6 0 1-0.4 1-1v-7c0-0.6-0.4-1-1-1zM9 20h-5v-5h5v5z"></path>
</svg>
