<!-- Generated by IcoMoon.io -->
<svg version="1.1" xmlns="http://www.w3.org/2000/svg" width="24" height="24" viewBox="0 0 24 24">
<title>hard-drive</title>
<path d="M22.9 11.6c0 0 0 0 0 0l-3.5-6.9c-0.5-1-1.5-1.7-2.7-1.7h-9.5c-1.1 0-2.1 0.6-2.6 1.7l-3.4 6.9c0 0 0 0 0 0-0.2 0.1-0.2 0.2-0.2 0.4v6c0 1.7 1.3 3 3 3h16c1.7 0 3-1.3 3-3v-6c0-0.2 0-0.3-0.1-0.4zM6.3 5.6c0 0 0 0 0 0 0.2-0.4 0.6-0.6 0.9-0.6h9.5c0.4 0 0.7 0.2 0.9 0.6l2.7 5.4h-16.7l2.7-5.4zM20 19h-16c-0.6 0-1-0.4-1-1v-5h18v5c0 0.6-0.4 1-1 1z"></path>
<path d="M5.3 15.3c-0.2 0.2-0.3 0.4-0.3 0.7s0.1 0.5 0.3 0.7c0.2 0.2 0.4 0.3 0.7 0.3s0.5-0.1 0.7-0.3c0.2-0.2 0.3-0.4 0.3-0.7s-0.1-0.5-0.3-0.7c-0.4-0.4-1-0.4-1.4 0z"></path>
<path d="M9.3 15.3c-0.2 0.2-0.3 0.4-0.3 0.7s0.1 0.5 0.3 0.7c0.2 0.2 0.4 0.3 0.7 0.3s0.5-0.1 0.7-0.3c0.2-0.2 0.3-0.5 0.3-0.7s-0.1-0.5-0.3-0.7c-0.4-0.4-1-0.4-1.4 0z"></path>
</svg>
