<!-- Generated by IcoMoon.io -->
<svg version="1.1" xmlns="http://www.w3.org/2000/svg" width="24" height="24" viewBox="0 0 24 24">
<title>headphones</title>
<path d="M12 2c-5.5 0-10 4.5-10 10v7c0 1.7 1.3 3 3 3h1c1.7 0 3-1.3 3-3v-3c0-1.7-1.3-3-3-3h-2v-1c0-4.4 3.6-8 8-8s8 3.6 8 8v1h-2c-1.7 0-3 1.3-3 3v3c0 1.7 1.3 3 3 3h1c1.7 0 3-1.3 3-3v-7c0-5.5-4.5-10-10-10zM6 15c0.6 0 1 0.4 1 1v3c0 0.6-0.4 1-1 1h-1c-0.6 0-1-0.4-1-1v-4h2zM20 19c0 0.6-0.4 1-1 1h-1c-0.6 0-1-0.4-1-1v-3c0-0.6 0.4-1 1-1h2v4z"></path>
</svg>
