<!-- Generated by IcoMoon.io -->
<svg version="1.1" xmlns="http://www.w3.org/2000/svg" width="24" height="24" viewBox="0 0 24 24">
<title>linkedin</title>
<path d="M16 7c-3.9 0-7 3.1-7 7v7c0 0.6 0.4 1 1 1h4c0.6 0 1-0.4 1-1v-7c0-0.6 0.4-1 1-1s1 0.4 1 1v7c0 0.6 0.4 1 1 1h4c0.6 0 1-0.4 1-1v-7c0-3.9-3.1-7-7-7zM21 20h-2v-6c0-1.7-1.3-3-3-3s-3 1.3-3 3v6h-2v-6c0-2.8 2.2-5 5-5s5 2.2 5 5v6z"></path>
<path d="M6 8h-4c-0.6 0-1 0.4-1 1v12c0 0.6 0.4 1 1 1h4c0.6 0 1-0.4 1-1v-12c0-0.6-0.4-1-1-1zM5 20h-2v-10h2v10z"></path>
<path d="M4 1c-1.7 0-3 1.3-3 3s1.3 3 3 3 3-1.3 3-3-1.3-3-3-3zM4 5c-0.6 0-1-0.4-1-1s0.4-1 1-1 1 0.4 1 1-0.4 1-1 1z"></path>
</svg>
