<!-- Generated by IcoMoon.io -->
<svg version="1.1" xmlns="http://www.w3.org/2000/svg" width="24" height="24" viewBox="0 0 24 24">
<title>list</title>
<path d="M8 7h13c0.6 0 1-0.4 1-1s-0.4-1-1-1h-13c-0.6 0-1 0.4-1 1s0.4 1 1 1z"></path>
<path d="M21 11h-13c-0.6 0-1 0.4-1 1s0.4 1 1 1h13c0.6 0 1-0.4 1-1s-0.4-1-1-1z"></path>
<path d="M21 17h-13c-0.6 0-1 0.4-1 1s0.4 1 1 1h13c0.6 0 1-0.4 1-1s-0.4-1-1-1z"></path>
<path d="M2.3 5.3c-0.2 0.2-0.3 0.4-0.3 0.7s0.1 0.5 0.3 0.7c0.2 0.2 0.4 0.3 0.7 0.3s0.5-0.1 0.7-0.3c0.2-0.2 0.3-0.4 0.3-0.7s-0.1-0.5-0.3-0.7c-0.4-0.4-1-0.4-1.4 0z"></path>
<path d="M2.3 11.3c-0.2 0.2-0.3 0.4-0.3 0.7s0.1 0.5 0.3 0.7c0.2 0.2 0.4 0.3 0.7 0.3s0.5-0.1 0.7-0.3c0.2-0.2 0.3-0.4 0.3-0.7s-0.1-0.5-0.3-0.7c-0.4-0.4-1-0.4-1.4 0z"></path>
<path d="M2.3 17.3c-0.2 0.2-0.3 0.4-0.3 0.7s0.1 0.5 0.3 0.7c0.2 0.2 0.4 0.3 0.7 0.3s0.5-0.1 0.7-0.3c0.2-0.2 0.3-0.4 0.3-0.7s-0.1-0.5-0.3-0.7c-0.4-0.4-1-0.4-1.4 0z"></path>
</svg>
