<!-- Generated by IcoMoon.io -->
<svg version="1.1" xmlns="http://www.w3.org/2000/svg" width="24" height="24" viewBox="0 0 24 24">
<title>message-circle</title>
<path d="M22 10.9c-0.3-4.8-4.1-8.7-9-8.9h-0.5c0 0 0 0 0 0-1.5 0-2.9 0.3-4.2 1-3.3 1.6-5.3 4.9-5.3 8.5 0 1.3 0.3 2.7 0.8 3.9l-1.8 5.3c-0.1 0.4 0 0.8 0.2 1 0.3 0.2 0.5 0.3 0.8 0.3 0.1 0 0.2 0 0.3-0.1l5.3-1.8c1.2 0.5 2.5 0.8 3.9 0.8 3.6 0 6.9-2 8.5-5.2 0.7-1.3 1-2.8 1-4.3v-0.5zM20 11.5c0 0 0 0 0 0 0 1.2-0.3 2.3-0.8 3.4-1.3 2.6-3.8 4.1-6.7 4.1-1.2 0-2.3-0.3-3.3-0.8-0.2-0.1-0.5-0.1-0.8-0.1l-3.8 1.3 1.3-3.8c0.1-0.3 0.1-0.5-0.1-0.8-0.5-1-0.8-2.2-0.8-3.3 0-2.9 1.6-5.4 4.2-6.7 1-0.5 2.2-0.8 3.3-0.8 0 0 0 0 0 0h0.4c3.8 0.2 6.8 3.2 7.1 7v0.5z"></path>
</svg>
