<!-- Generated by IcoMoon.io -->
<svg version="1.1" xmlns="http://www.w3.org/2000/svg" width="24" height="24" viewBox="0 0 24 24">
<title>moon</title>
<path d="M21.5 11.9c-0.3-0.2-0.8-0.2-1.1 0.1-2.1 1.6-5 1.6-7.1 0-2.7-2-3.3-5.7-1.3-8.4 0.2-0.3 0.3-0.7 0.1-1.1-0.2-0.3-0.6-0.5-1-0.5-4.8 0.4-8.6 4.2-9 9-0.5 5.5 3.5 10.4 9 10.9 0.3 0 0.6 0 0.9 0 2.3 0 4.6-0.8 6.4-2.3 2.1-1.7 3.3-4.1 3.6-6.8 0-0.3-0.2-0.7-0.5-0.9zM17.2 18.1c-1.6 1.4-3.7 2-5.8 1.8-4.4-0.4-7.6-4.3-7.2-8.7 0.3-3.1 2.4-5.8 5.2-6.8-1.2 3.2-0.1 7 2.8 9.2 2.2 1.6 5 2 7.5 1.1-0.6 1.3-1.4 2.5-2.5 3.4z"></path>
</svg>
