<!-- Generated by IcoMoon.io -->
<svg version="1.1" xmlns="http://www.w3.org/2000/svg" width="24" height="24" viewBox="0 0 24 24">
<title>move</title>
<path d="M22.9 12.4c0.1-0.2 0.1-0.5 0-0.8-0.1-0.1-0.1-0.2-0.2-0.3l-3-3c-0.4-0.4-1-0.4-1.4 0s-0.4 1 0 1.4l1.3 1.3h-6.6v-6.6l1.3 1.3c0.2 0.2 0.4 0.3 0.7 0.3s0.5-0.1 0.7-0.3c0.4-0.4 0.4-1 0-1.4l-3-3c-0.1-0.1-0.2-0.2-0.3-0.2-0.2-0.1-0.5-0.1-0.8 0-0.1 0.1-0.2 0.1-0.3 0.2l-3 3c-0.4 0.4-0.4 1 0 1.4s1 0.4 1.4 0l1.3-1.3v6.6h-6.6l1.3-1.3c0.4-0.4 0.4-1 0-1.4s-1-0.4-1.4 0l-3 3c-0.1 0.1-0.2 0.2-0.2 0.3-0.1 0.2-0.1 0.5 0 0.8 0.1 0.1 0.1 0.2 0.2 0.3l3 3c0.2 0.2 0.4 0.3 0.7 0.3s0.5-0.1 0.7-0.3c0.4-0.4 0.4-1 0-1.4l-1.3-1.3h6.6v6.6l-1.3-1.3c-0.4-0.4-1-0.4-1.4 0s-0.4 1 0 1.4l3 3c0.1 0.1 0.2 0.2 0.3 0.2 0.1 0.1 0.3 0.1 0.4 0.1s0.3 0 0.4-0.1c0.1-0.1 0.2-0.1 0.3-0.2l3-3c0.4-0.4 0.4-1 0-1.4s-1-0.4-1.4 0l-1.3 1.3v-6.6h6.6l-1.3 1.3c-0.4 0.4-0.4 1 0 1.4 0.2 0.2 0.5 0.3 0.7 0.3s0.5-0.1 0.7-0.3l3-3c0.1-0.1 0.2-0.2 0.2-0.3z"></path>
</svg>
