<!-- Generated by IcoMoon.io -->
<svg version="1.1" xmlns="http://www.w3.org/2000/svg" width="24" height="24" viewBox="0 0 24 24">
<title>phone-off</title>
<path d="M5.2 13.8c0.2 0 0.4-0.1 0.5-0.2 0.5-0.3 0.6-0.9 0.3-1.4-1.6-2.4-2.6-5.2-2.9-8.1 0-0.3 0.1-0.5 0.2-0.7 0.2-0.2 0.5-0.4 0.8-0.4h3c0.5 0 0.9 0.4 1 0.9 0.1 1 0.4 2.1 0.8 3 0.1 0.4 0 0.8-0.2 1.1l-1.3 1.2c-0.4 0.4-0.4 1 0 1.4s1 0.4 1.4 0l1.3-1.3c0.8-0.8 1.1-2.1 0.7-3.2-0.3-0.8-0.5-1.7-0.6-2.6-0.3-1.4-1.6-2.5-3.1-2.5 0 0 0 0 0 0h-3c-0.1 0-0.2 0-0.3 0-0.8 0.1-1.5 0.5-2 1.1s-0.7 1.4-0.7 2.2c0.3 3.2 1.5 6.4 3.2 9.1 0.2 0.2 0.6 0.4 0.9 0.4z"></path>
<path d="M23.7 0.3c-0.4-0.4-1-0.4-1.4 0l-12.3 12.3c0 0 0 0 0 0s0 0 0 0l-9.7 9.7c-0.4 0.4-0.4 1 0 1.4 0.2 0.2 0.4 0.3 0.7 0.3s0.5-0.1 0.7-0.3l6.2-6.2c0.9 0.8 1.8 1.5 2.8 2.1 2.7 1.8 5.9 2.9 9.1 3.2 0.1 0 0.2 0 0.3 0 0.8 0 1.6-0.3 2.1-0.9s0.9-1.3 0.9-2.1v-3c0-1.5-1.1-2.8-2.6-3-0.9-0.1-1.8-0.3-2.6-0.6-1.1-0.4-2.3-0.1-3.2 0.7l-0.7 0.7c-0.6-0.4-1.2-0.9-1.8-1.4l11.5-11.5c0.4-0.4 0.4-1 0-1.4zM13.6 16.8c0.4 0.2 0.9 0.2 1.2-0.2l1.3-1.3c0.3-0.3 0.7-0.4 1.1-0.2 1 0.4 2 0.6 3 0.8 0.5 0.1 0.9 0.5 0.9 1v3c0 0.3-0.1 0.5-0.3 0.7s-0.4 0.3-0.8 0.3c-2.9-0.3-5.7-1.3-8.2-2.9-0.9-0.5-1.7-1.2-2.4-1.9l1.4-1.4c0.8 0.8 1.8 1.5 2.8 2.1z"></path>
</svg>
