<!-- Generated by IcoMoon.io -->
<svg version="1.1" xmlns="http://www.w3.org/2000/svg" width="24" height="24" viewBox="0 0 24 24">
<title>play-circle</title>
<path d="M12 1c-6.1 0-11 4.9-11 11s4.9 11 11 11 11-4.9 11-11-4.9-11-11-11zM12 21c-5 0-9-4-9-9s4-9 9-9c5 0 9 4 9 9s-4 9-9 9z"></path>
<path d="M16.6 11.2l-6-4c-0.3-0.2-0.7-0.2-1 0-0.4 0.1-0.6 0.4-0.6 0.8v8c0 0.4 0.2 0.7 0.5 0.9 0.2 0.1 0.3 0.1 0.5 0.1s0.4-0.1 0.6-0.2l6-4c0.3-0.2 0.4-0.5 0.4-0.8s-0.2-0.6-0.4-0.8zM11 14.1v-4.2l3.2 2.1-3.2 2.1z"></path>
</svg>
