<!-- Generated by IcoMoon.io -->
<svg version="1.1" xmlns="http://www.w3.org/2000/svg" width="24" height="24" viewBox="0 0 24 24">
<title>radio</title>
<path d="M12 9c-1.7 0-3 1.3-3 3s1.3 3 3 3 3-1.3 3-3-1.3-3-3-3zM12 13c-0.6 0-1-0.4-1-1s0.4-1 1-1 1 0.4 1 1-0.4 1-1 1z"></path>
<path d="M19.8 4.2c-0.4-0.4-1-0.4-1.4 0s-0.4 1 0 1.4c3.5 3.5 3.5 9.2 0 12.7-0.4 0.4-0.4 1 0 1.4 0.2 0.2 0.5 0.3 0.7 0.3s0.5-0.1 0.7-0.3c4.3-4.2 4.3-11.2 0-15.5z"></path>
<path d="M5.6 5.6c0.4-0.4 0.4-1 0-1.4s-1-0.4-1.4 0c-4.3 4.3-4.3 11.3 0 15.6 0.2 0.2 0.5 0.3 0.7 0.3s0.5-0.1 0.7-0.3c0.4-0.4 0.4-1 0-1.4-3.5-3.5-3.5-9.3 0-12.8z"></path>
<path d="M7 12c0-1.3 0.5-2.6 1.5-3.5 0 0 0 0 0 0 0.4-0.4 0.3-1 0-1.4-0.4-0.4-1-0.4-1.4 0 0 0 0 0 0 0-2.7 2.7-2.7 7.2 0 9.9 0.2 0.2 0.5 0.3 0.7 0.3s0.5-0.1 0.7-0.3c0.4-0.4 0.4-1 0-1.4-1-1-1.5-2.3-1.5-3.6z"></path>
<path d="M16.9 7.1c-0.4-0.4-1-0.4-1.4 0s-0.4 1 0 1.4c2 1.9 2 5.1 0.1 7-0.1 0.1-0.2 0.2-0.3 0.3-0.2 0.5 0 1.1 0.4 1.3 0.1 0.1 0.3 0.1 0.4 0.1 0.3 0 0.5-0.1 0.7-0.3 2.9-2.7 2.9-7.1 0.1-9.8z"></path>
</svg>
