<!-- Generated by IcoMoon.io -->
<svg version="1.1" xmlns="http://www.w3.org/2000/svg" width="24" height="24" viewBox="0 0 24 24">
<title>refresh-cw</title>
<path d="M20.8 14.1c-0.5-0.2-1.1 0.1-1.3 0.6-0.4 1.1-1 2.2-1.9 3-1.4 1.5-3.5 2.3-5.6 2.3 0 0 0 0 0 0-2.1 0-4.1-0.8-5.7-2.4l-2.8-2.6h3.5c0.6 0 1-0.4 1-1s-0.4-1-1-1h-6c0 0 0 0 0 0-0.1 0-0.2 0-0.2 0.1 0 0-0.1 0-0.1 0s-0.1 0-0.1 0.1c-0.1 0-0.2 0.1-0.2 0.2 0 0 0 0 0 0s0 0.1-0.1 0.1c0 0.1-0.1 0.1-0.1 0.2s0 0.1 0 0.2c0 0 0 0.1 0 0.1v6c0 0.6 0.4 1 1 1s1-0.4 1-1v-3.7l2.9 2.8c1.7 1.9 4.2 2.9 6.9 2.9 0 0 0 0 0 0 2.7 0 5.2-1 7.1-2.9 1-1 1.9-2.3 2.4-3.7 0.1-0.6-0.2-1.2-0.7-1.3z"></path>
<path d="M24 10.1c0 0 0-0.1 0-0.1v-6c0-0.6-0.4-1-1-1s-1 0.4-1 1v3.7l-2.9-2.8c-1-1-2.3-1.9-3.7-2.4-2.6-0.8-5.3-0.7-7.7 0.5-2.4 1.1-4.2 3.1-5.1 5.7-0.2 0.5 0.1 1.1 0.6 1.2 0.5 0.2 1.1-0.1 1.3-0.6 0.7-2 2.2-3.6 4.1-4.6 1.9-0.9 4.1-1 6.1-0.3 1.1 0.4 2.2 1 3 1.9l2.8 2.7h-3.5c-0.6 0-1 0.4-1 1s0.4 1 1 1h6c0.1 0 0.3 0 0.4-0.1 0 0 0 0 0 0 0.1-0.1 0.2-0.1 0.3-0.2 0 0 0 0 0 0s0-0.1 0.1-0.1c0-0.1 0.1-0.1 0.1-0.2 0.1-0.1 0.1-0.2 0.1-0.3z"></path>
</svg>
