<!-- Generated by IcoMoon.io -->
<svg version="1.1" xmlns="http://www.w3.org/2000/svg" width="24" height="24" viewBox="0 0 24 24">
<title>repeat</title>
<path d="M3 12c0.6 0 1-0.4 1-1v-2c0-1.7 1.3-3 3-3h11.6l-2.3 2.3c-0.4 0.4-0.4 1 0 1.4 0.2 0.2 0.4 0.3 0.7 0.3s0.5-0.1 0.7-0.3l4-4c0.1-0.1 0.2-0.2 0.2-0.3 0.1-0.2 0.1-0.5 0-0.8-0.1-0.1-0.1-0.2-0.2-0.3l-4-4c-0.4-0.4-1-0.4-1.4 0s-0.4 1 0 1.4l2.3 2.3h-11.6c-2.8 0-5 2.2-5 5v2c0 0.6 0.4 1 1 1z"></path>
<path d="M21 12c-0.6 0-1 0.4-1 1v2c0 1.7-1.3 3-3 3h-11.6l2.3-2.3c0.4-0.4 0.4-1 0-1.4s-1-0.4-1.4 0l-4 4c-0.1 0.1-0.2 0.2-0.2 0.3-0.1 0.2-0.1 0.5 0 0.8 0.1 0.1 0.1 0.2 0.2 0.3l4 4c0.2 0.2 0.4 0.3 0.7 0.3s0.5-0.1 0.7-0.3c0.4-0.4 0.4-1 0-1.4l-2.3-2.3h11.6c2.8 0 5-2.2 5-5v-2c0-0.6-0.4-1-1-1z"></path>
</svg>
