<!-- Generated by IcoMoon.io -->
<svg version="1.1" xmlns="http://www.w3.org/2000/svg" width="24" height="24" viewBox="0 0 24 24">
<title>rewind</title>
<path d="M11.4 4.1c-0.3-0.2-0.8-0.1-1.1 0.1l-9 7c-0.2 0.2-0.3 0.5-0.3 0.8s0.1 0.6 0.4 0.8l9 7c0.2 0.1 0.4 0.2 0.6 0.2 0.1 0 0.3 0 0.4-0.1 0.3-0.2 0.6-0.5 0.6-0.9v-14c0-0.4-0.2-0.7-0.6-0.9zM10 17l-6.4-5 6.4-5v10z"></path>
<path d="M22.4 4.1c-0.3-0.2-0.8-0.1-1.1 0.1l-9 7c-0.2 0.2-0.3 0.5-0.3 0.8s0.1 0.6 0.4 0.8l9 7c0.2 0.1 0.4 0.2 0.6 0.2 0.1 0 0.3 0 0.4-0.1 0.3-0.2 0.6-0.5 0.6-0.9v-14c0-0.4-0.2-0.7-0.6-0.9zM21 17l-6.4-5 6.4-5v10z"></path>
</svg>
