<!-- Generated by IcoMoon.io -->
<svg version="1.1" xmlns="http://www.w3.org/2000/svg" width="24" height="24" viewBox="0 0 24 24">
<title>rotate-cw</title>
<path d="M24 10.1c0 0 0-0.1 0-0.1v-6c0-0.6-0.4-1-1-1s-1 0.4-1 1v3.7l-2.9-2.8c-1-1-2.3-1.9-3.7-2.4-5.3-1.8-11 1-12.8 6.2s0.9 10.9 6.1 12.8c1.1 0.3 2.2 0.5 3.3 0.5 4.1 0 8-2.6 9.4-6.7 0.2-0.5-0.1-1.1-0.6-1.3s-1.1 0.1-1.3 0.6c-1.5 4.2-6 6.3-10.2 4.9-4.2-1.5-6.3-6-4.9-10.2 1.5-4.1 6.1-6.3 10.3-4.8 1.1 0.4 2.2 1 3 1.9l2.8 2.6h-3.5c-0.6 0-1 0.4-1 1s0.4 1 1 1h6c0 0 0 0 0 0 0.1 0 0.2 0 0.2-0.1 0 0 0.1 0 0.1 0s0.1-0.1 0.1-0.1c0.1 0 0.2-0.1 0.2-0.2 0 0 0 0 0 0s0-0.1 0.1-0.1c0-0.1 0.1-0.1 0.1-0.2 0.2 0 0.2-0.1 0.2-0.2z"></path>
</svg>
