<!-- Generated by IcoMoon.io -->
<svg version="1.1" xmlns="http://www.w3.org/2000/svg" width="24" height="24" viewBox="0 0 24 24">
<title>scissors</title>
<path d="M20.7 4.7c0.4-0.4 0.4-1 0-1.4s-1-0.4-1.4 0l-7.3 7.3-2.6-2.6c0.4-0.6 0.6-1.3 0.6-2 0-2.2-1.8-4-4-4s-4 1.8-4 4 1.8 4 4 4c0.7 0 1.4-0.2 2-0.6l2.6 2.6-2.6 2.6c-0.6-0.4-1.3-0.6-2-0.6-2.2 0-4 1.8-4 4s1.8 4 4 4 4-1.8 4-4c0-0.7-0.2-1.4-0.6-2l11.3-11.3zM4 6c0-1.1 0.9-2 2-2s2 0.9 2 2c0 0.6-0.2 1-0.6 1.4 0 0 0 0 0 0s0 0 0 0c-0.4 0.4-0.8 0.6-1.4 0.6-1.1 0-2-0.9-2-2zM6 20c-1.1 0-2-0.9-2-2s0.9-2 2-2c0.6 0 1 0.2 1.4 0.6 0 0 0 0 0 0s0 0 0 0c0.4 0.4 0.6 0.8 0.6 1.4 0 1.1-0.9 2-2 2z"></path>
<path d="M15.2 13.8c-0.4-0.4-1-0.4-1.4 0s-0.4 1 0 1.4l5.5 5.5c0.2 0.2 0.5 0.3 0.7 0.3s0.5-0.1 0.7-0.3c0.4-0.4 0.4-1 0-1.4l-5.5-5.5z"></path>
</svg>
