<!-- Generated by IcoMoon.io -->
<svg version="1.1" xmlns="http://www.w3.org/2000/svg" width="24" height="24" viewBox="0 0 24 24">
<title>send</title>
<path d="M23 1.9c0-0.1 0-0.2-0.1-0.3 0 0 0-0.1 0-0.1 0-0.1-0.1-0.2-0.2-0.3s-0.2-0.1-0.3-0.2c0 0-0.1 0-0.1 0-0.1 0-0.2 0-0.3-0.1 0 0.1 0 0.1 0 0.1-0.1 0-0.2 0-0.3 0.1l-20 7c-0.4 0.1-0.7 0.4-0.7 0.9 0 0.4 0.2 0.8 0.6 1l8.6 3.8 3.8 8.6c0.2 0.4 0.5 0.6 0.9 0.6 0 0 0 0 0 0 0.4 0 0.8-0.3 0.9-0.7l7-20c0.2-0.1 0.2-0.2 0.2-0.4 0 0.1 0 0.1 0 0zM18.2 4.4l-7.4 7.4-6.1-2.7 13.5-4.7zM14.9 19.3l-2.7-6.1 7.4-7.4-4.7 13.5z"></path>
</svg>
