<!-- Generated by IcoMoon.io -->
<svg version="1.1" xmlns="http://www.w3.org/2000/svg" width="24" height="24" viewBox="0 0 24 24">
<title>server</title>
<path d="M20 1h-16c-1.7 0-3 1.3-3 3v4c0 1.7 1.3 3 3 3h16c1.7 0 3-1.3 3-3v-4c0-1.7-1.3-3-3-3zM21 8c0 0.6-0.4 1-1 1h-16c-0.6 0-1-0.4-1-1v-4c0-0.6 0.4-1 1-1h16c0.6 0 1 0.4 1 1v4z"></path>
<path d="M20 13h-16c-1.7 0-3 1.3-3 3v4c0 1.7 1.3 3 3 3h16c1.7 0 3-1.3 3-3v-4c0-1.7-1.3-3-3-3zM21 20c0 0.6-0.4 1-1 1h-16c-0.6 0-1-0.4-1-1v-4c0-0.6 0.4-1 1-1h16c0.6 0 1 0.4 1 1v4z"></path>
<path d="M5.3 5.3c-0.2 0.2-0.3 0.4-0.3 0.7s0.1 0.5 0.3 0.7c0.2 0.2 0.4 0.3 0.7 0.3s0.5-0.1 0.7-0.3c0.2-0.2 0.3-0.4 0.3-0.7s-0.1-0.5-0.3-0.7c-0.4-0.4-1-0.4-1.4 0z"></path>
<path d="M5.3 17.3c-0.2 0.2-0.3 0.4-0.3 0.7s0.1 0.5 0.3 0.7c0.2 0.2 0.4 0.3 0.7 0.3s0.5-0.1 0.7-0.3c0.2-0.2 0.3-0.4 0.3-0.7s-0.1-0.5-0.3-0.7c-0.4-0.4-1-0.4-1.4 0z"></path>
</svg>
