<!-- Generated by IcoMoon.io -->
<svg version="1.1" xmlns="http://www.w3.org/2000/svg" width="24" height="24" viewBox="0 0 24 24">
<title>share-2</title>
<path d="M18 15c-1.1 0-2.1 0.5-2.8 1.2l-5.3-3.1c0-0.4 0.1-0.7 0.1-1.1s-0.1-0.7-0.2-1.1l5.3-3.1c0.8 0.7 1.8 1.2 2.9 1.2 2.2 0 4-1.8 4-4s-1.8-4-4-4-4 1.8-4 4c0 0.4 0.1 0.7 0.2 1.1l-5.4 3.1c-0.7-0.7-1.7-1.2-2.8-1.2-2.2 0-4 1.8-4 4s1.8 4 4 4c1.1 0 2.1-0.5 2.8-1.2l5.3 3.1c0 0.4-0.1 0.7-0.1 1.1 0 2.2 1.8 4 4 4s4-1.8 4-4-1.8-4-4-4zM18 3c1.1 0 2 0.9 2 2s-0.9 2-2 2-2-0.9-2-2 0.9-2 2-2zM6 14c-1.1 0-2-0.9-2-2s0.9-2 2-2 2 0.9 2 2c0 1.1-0.9 2-2 2zM18 21c-1.1 0-2-0.9-2-2 0-0.4 0.1-0.7 0.3-1 0 0 0 0 0 0s0 0 0 0c0.3-0.6 1-1 1.7-1 1.1 0 2 0.9 2 2s-0.9 2-2 2z"></path>
</svg>
