<!-- Generated by IcoMoon.io -->
<svg version="1.1" xmlns="http://www.w3.org/2000/svg" width="24" height="24" viewBox="0 0 24 24">
<title>share</title>
<path d="M20 11c-0.6 0-1 0.4-1 1v8c0 0.6-0.4 1-1 1h-12c-0.6 0-1-0.4-1-1v-8c0-0.6-0.4-1-1-1s-1 0.4-1 1v8c0 1.7 1.3 3 3 3h12c1.7 0 3-1.3 3-3v-8c0-0.6-0.4-1-1-1z"></path>
<path d="M8.7 6.7l2.3-2.3v10.6c0 0.6 0.4 1 1 1s1-0.4 1-1v-10.6l2.3 2.3c0.2 0.2 0.4 0.3 0.7 0.3s0.5-0.1 0.7-0.3c0.4-0.4 0.4-1 0-1.4l-4-4c-0.1-0.1-0.2-0.2-0.3-0.2-0.2-0.1-0.5-0.1-0.8 0-0.1 0.1-0.2 0.1-0.3 0.2l-4 4c-0.4 0.4-0.4 1 0 1.4s1 0.4 1.4 0z"></path>
</svg>
