<!-- Generated by IcoMoon.io -->
<svg version="1.1" xmlns="http://www.w3.org/2000/svg" width="24" height="24" viewBox="0 0 24 24">
<title>shield-off</title>
<path d="M9.2 4.1l2.8-1 7 2.6v6.3c0 0.6-0.1 1.2-0.3 1.7s0.1 1.1 0.7 1.2c0.1 0 0.2 0 0.3 0 0.4 0 0.8-0.3 1-0.7 0.2-0.7 0.3-1.5 0.4-2.3v-6.9c0-0.4-0.3-0.8-0.6-0.9l-8-3c-0.2-0.1-0.5-0.1-0.7 0l-3.3 1.1c-0.5 0.2-0.8 0.8-0.6 1.3s0.8 0.8 1.3 0.6z"></path>
<path d="M23.7 22.3l-22-22c-0.4-0.4-1-0.4-1.4 0s-0.4 1 0 1.4l2.8 2.8c0 0.2-0.1 0.3-0.1 0.5v7c0 6.5 8.2 10.7 8.6 10.9 0.1 0.1 0.2 0.1 0.4 0.1s0.3 0 0.5-0.1c1.9-1 3.6-2.3 5.2-3.8l4.7 4.7c0.2 0.2 0.5 0.3 0.7 0.3s0.5-0.1 0.7-0.3c0.3-0.5 0.3-1.1-0.1-1.5zM12 20.9c-1.6-0.9-7-4.3-7-8.9v-5.6l11.2 11.2c-1.2 1.3-2.6 2.4-4.2 3.3z"></path>
</svg>
