<!-- Generated by IcoMoon.io -->
<svg version="1.1" xmlns="http://www.w3.org/2000/svg" width="24" height="24" viewBox="0 0 24 24">
<title>shopping-bag</title>
<path d="M21.9 5.6c0 0 0-0.1-0.1-0.1 0 0 0-0.1-0.1-0.1l-3-4c-0.1-0.3-0.4-0.4-0.7-0.4h-12c-0.3 0-0.6 0.1-0.8 0.4l-3 4c0 0 0 0.1-0.1 0.1 0 0 0 0.1-0.1 0.1 0 0.2 0 0.3 0 0.4v14c0 1.7 1.3 3 3 3h14c1.7 0 3-1.3 3-3v-14c0-0.1 0-0.2-0.1-0.4zM6.5 3h11l1.5 2h-14l1.5-2zM19 21h-14c-0.6 0-1-0.4-1-1v-13h16v13c0 0.6-0.4 1-1 1z"></path>
<path d="M16 9c-0.6 0-1 0.4-1 1 0 1.7-1.3 3-3 3s-3-1.3-3-3c0-0.6-0.4-1-1-1s-1 0.4-1 1c0 2.8 2.2 5 5 5s5-2.2 5-5c0-0.6-0.4-1-1-1z"></path>
</svg>
