<!-- Generated by IcoMoon.io -->
<svg version="1.1" xmlns="http://www.w3.org/2000/svg" width="24" height="24" viewBox="0 0 24 24">
<title>shuffle</title>
<path d="M21.9 2.6c-0.1-0.2-0.3-0.4-0.5-0.5-0.1-0.1-0.3-0.1-0.4-0.1h-5c-0.6 0-1 0.4-1 1s0.4 1 1 1h2.6l-15.3 15.3c-0.4 0.4-0.4 1 0 1.4 0.2 0.2 0.4 0.3 0.7 0.3s0.5-0.1 0.7-0.3l15.3-15.3v2.6c0 0.6 0.4 1 1 1s1-0.4 1-1v-5c0-0.1 0-0.3-0.1-0.4z"></path>
<path d="M21 15c-0.6 0-1 0.4-1 1v2.6l-4.3-4.3c-0.4-0.4-1-0.4-1.4 0s-0.4 1 0 1.4l4.3 4.3h-2.6c-0.6 0-1 0.4-1 1s0.4 1 1 1h5c0.1 0 0.3 0 0.4-0.1 0.2-0.1 0.4-0.3 0.5-0.5 0.1-0.1 0.1-0.3 0.1-0.4v-5c0-0.6-0.4-1-1-1z"></path>
<path d="M8.3 9.7c0.2 0.2 0.4 0.3 0.7 0.3s0.5-0.1 0.7-0.3c0.4-0.4 0.4-1 0-1.4l-5-5c-0.4-0.4-1-0.4-1.4 0s-0.4 1 0 1.4l5 5z"></path>
</svg>
