<!-- Generated by IcoMoon.io -->
<svg version="1.1" xmlns="http://www.w3.org/2000/svg" width="24" height="24" viewBox="0 0 24 24">
<title>sliders</title>
<path d="M4 11c0.6 0 1-0.4 1-1v-7c0-0.6-0.4-1-1-1s-1 0.4-1 1v7c0 0.6 0.4 1 1 1z"></path>
<path d="M12 11c-0.6 0-1 0.4-1 1v9c0 0.6 0.4 1 1 1s1-0.4 1-1v-9c0-0.6-0.4-1-1-1z"></path>
<path d="M20 13c0.6 0 1-0.4 1-1v-9c0-0.6-0.4-1-1-1s-1 0.4-1 1v9c0 0.6 0.4 1 1 1z"></path>
<path d="M7 13h-6c-0.6 0-1 0.4-1 1s0.4 1 1 1h2v6c0 0.6 0.4 1 1 1s1-0.4 1-1v-6h2c0.6 0 1-0.4 1-1s-0.4-1-1-1z"></path>
<path d="M15 7h-2v-4c0-0.6-0.4-1-1-1s-1 0.4-1 1v4h-2c-0.6 0-1 0.4-1 1s0.4 1 1 1h6c0.6 0 1-0.4 1-1s-0.4-1-1-1z"></path>
<path d="M23 15h-6c-0.6 0-1 0.4-1 1s0.4 1 1 1h2v4c0 0.6 0.4 1 1 1s1-0.4 1-1v-4h2c0.6 0 1-0.4 1-1s-0.4-1-1-1z"></path>
</svg>
