<!-- Generated by IcoMoon.io -->
<svg version="1.1" xmlns="http://www.w3.org/2000/svg" width="24" height="24" viewBox="0 0 24 24">
<title>speaker</title>
<path d="M18 1h-12c-1.7 0-3 1.3-3 3v16c0 1.7 1.3 3 3 3h12c1.7 0 3-1.3 3-3v-16c0-1.7-1.3-3-3-3zM19 20c0 0.6-0.4 1-1 1h-12c-0.6 0-1-0.4-1-1v-16c0-0.6 0.4-1 1-1h12c0.6 0 1 0.4 1 1v16z"></path>
<path d="M12 9c-2.8 0-5 2.2-5 5s2.2 5 5 5 5-2.2 5-5-2.2-5-5-5zM12 17c-1.7 0-3-1.3-3-3s1.3-3 3-3 3 1.3 3 3-1.3 3-3 3z"></path>
<path d="M12 7c0.3 0 0.5-0.1 0.7-0.3s0.3-0.4 0.3-0.7c0-0.3-0.1-0.5-0.3-0.7-0.4-0.4-1.1-0.4-1.4 0-0.2 0.2-0.3 0.4-0.3 0.7s0.1 0.5 0.3 0.7c0.2 0.2 0.4 0.3 0.7 0.3z"></path>
</svg>
