<!-- Generated by IcoMoon.io -->
<svg version="1.1" xmlns="http://www.w3.org/2000/svg" width="24" height="24" viewBox="0 0 24 24">
<title>sun</title>
<path d="M12 6c-3.3 0-6 2.7-6 6s2.7 6 6 6 6-2.7 6-6-2.7-6-6-6zM12 16c-2.2 0-4-1.8-4-4s1.8-4 4-4c2.2 0 4 1.8 4 4s-1.8 4-4 4z"></path>
<path d="M12 4c0.6 0 1-0.4 1-1v-2c0-0.6-0.4-1-1-1s-1 0.4-1 1v2c0 0.6 0.4 1 1 1z"></path>
<path d="M12 20c-0.6 0-1 0.4-1 1v2c0 0.6 0.4 1 1 1s1-0.4 1-1v-2c0-0.6-0.4-1-1-1z"></path>
<path d="M4.9 6.3c0.2 0.2 0.5 0.3 0.7 0.3s0.5-0.1 0.7-0.3c0.4-0.4 0.4-1 0-1.4l-1.4-1.4c-0.4-0.4-1-0.4-1.4 0s-0.4 1 0 1.4l1.4 1.4z"></path>
<path d="M19.1 17.7c-0.4-0.4-1-0.4-1.4 0s-0.4 1 0 1.4l1.4 1.4c0.2 0.2 0.5 0.3 0.7 0.3s0.5-0.1 0.7-0.3c0.4-0.4 0.4-1 0-1.4l-1.4-1.4z"></path>
<path d="M4 12c0-0.6-0.4-1-1-1h-2c-0.6 0-1 0.4-1 1s0.4 1 1 1h2c0.6 0 1-0.4 1-1z"></path>
<path d="M23 11h-2c-0.6 0-1 0.4-1 1s0.4 1 1 1h2c0.6 0 1-0.4 1-1s-0.4-1-1-1z"></path>
<path d="M4.9 17.7l-1.4 1.4c-0.4 0.4-0.4 1 0 1.4 0.2 0.2 0.5 0.3 0.7 0.3s0.5-0.1 0.7-0.3l1.4-1.4c0.4-0.4 0.4-1 0-1.4s-1-0.4-1.4 0z"></path>
<path d="M18.4 6.6c0.3 0 0.5-0.1 0.7-0.3l1.4-1.4c0.4-0.4 0.4-1 0-1.4s-1-0.4-1.4 0l-1.4 1.4c-0.4 0.4-0.4 1 0 1.4 0.1 0.2 0.4 0.3 0.7 0.3z"></path>
</svg>
