<!-- Generated by IcoMoon.io -->
<svg version="1.1" xmlns="http://www.w3.org/2000/svg" width="24" height="24" viewBox="0 0 24 24">
<title>sunrise</title>
<path d="M12 12c-3.3 0-6 2.7-6 6 0 0.6 0.4 1 1 1s1-0.4 1-1c0-2.2 1.8-4 4-4s4 1.8 4 4c0 0.6 0.4 1 1 1s1-0.4 1-1c0-3.3-2.7-6-6-6z"></path>
<path d="M4.9 12.3c0.2 0.2 0.5 0.3 0.7 0.3s0.5-0.1 0.7-0.3c0.4-0.4 0.4-1 0-1.4l-1.4-1.4c-0.4-0.4-1-0.4-1.4 0s-0.4 1 0 1.4l1.4 1.4z"></path>
<path d="M1 19h2c0.6 0 1-0.4 1-1s-0.4-1-1-1h-2c-0.6 0-1 0.4-1 1s0.4 1 1 1z"></path>
<path d="M20 18c0 0.6 0.4 1 1 1h2c0.6 0 1-0.4 1-1s-0.4-1-1-1h-2c-0.6 0-1 0.4-1 1z"></path>
<path d="M18.4 12.6c0.3 0 0.5-0.1 0.7-0.3l1.4-1.4c0.4-0.4 0.4-1 0-1.4s-1-0.4-1.4 0l-1.4 1.4c-0.4 0.4-0.4 1 0 1.4 0.1 0.2 0.4 0.3 0.7 0.3z"></path>
<path d="M23 21h-22c-0.6 0-1 0.4-1 1s0.4 1 1 1h22c0.6 0 1-0.4 1-1s-0.4-1-1-1z"></path>
<path d="M8.7 6.7l2.3-2.3v4.6c0 0.6 0.4 1 1 1s1-0.4 1-1v-4.6l2.3 2.3c0.2 0.2 0.4 0.3 0.7 0.3s0.5-0.1 0.7-0.3c0.4-0.4 0.4-1 0-1.4l-4-4c-0.1-0.1-0.2-0.2-0.3-0.2-0.2-0.1-0.5-0.1-0.8 0-0.1 0.1-0.2 0.1-0.3 0.2l-4 4c-0.4 0.4-0.4 1 0 1.4s1 0.4 1.4 0z"></path>
</svg>
