<!-- Generated by IcoMoon.io -->
<svg version="1.1" xmlns="http://www.w3.org/2000/svg" width="24" height="24" viewBox="0 0 24 24">
<title>tablet</title>
<path d="M18 1h-12c-1.7 0-3 1.3-3 3v16c0 1.7 1.3 3 3 3h12c1.7 0 3-1.3 3-3v-16c0-1.7-1.3-3-3-3zM19 20c0 0.6-0.4 1-1 1h-12c-0.6 0-1-0.4-1-1v-16c0-0.6 0.4-1 1-1h12c0.6 0 1 0.4 1 1v16z"></path>
<path d="M11.3 17.3c-0.2 0.2-0.3 0.4-0.3 0.7s0.1 0.5 0.3 0.7c0.2 0.2 0.4 0.3 0.7 0.3s0.5-0.1 0.7-0.3c0.2-0.2 0.3-0.5 0.3-0.7s-0.1-0.5-0.3-0.7c-0.4-0.4-1-0.4-1.4 0z"></path>
</svg>
