<!-- Generated by IcoMoon.io -->
<svg version="1.1" xmlns="http://www.w3.org/2000/svg" width="24" height="24" viewBox="0 0 24 24">
<title>thermometer</title>
<path d="M16.1 15.4c-0.3-0.5-0.7-0.8-1.1-1.2v-10.7c0-1.9-1.6-3.5-3.5-3.5s-3.5 1.6-3.5 3.5v10.8c-2.2 1.8-2.7 4.9-1.1 7.3 0.8 1.2 2.1 2.1 3.5 2.3 0.4 0.1 0.7 0.1 1.1 0.1 1.1 0 2.1-0.3 3-0.9 2.6-1.7 3.3-5.1 1.6-7.7zM13.4 21.4c-1.6 1.1-3.8 0.6-4.9-1-0.5-0.8-0.7-1.7-0.5-2.6s0.7-1.7 1.5-2.2c0.3-0.2 0.4-0.5 0.4-0.8v-11.3c0.1-0.8 0.8-1.5 1.6-1.5s1.5 0.7 1.5 1.5v11.3c0 0.3 0.2 0.6 0.4 0.8 0.4 0.3 0.7 0.6 1 1 1.1 1.6 0.6 3.7-1 4.8z"></path>
</svg>
