<!-- Generated by IcoMoon.io -->
<svg version="1.1" xmlns="http://www.w3.org/2000/svg" width="24" height="24" viewBox="0 0 24 24">
<title>thumbs-up</title>
<path d="M22.1 9.2c-0.5-0.6-1.2-1.1-2-1.2-0.2 0-0.3 0-0.5 0h-4.6v-3c0-2.2-1.8-4-4-4-0.4 0-0.8 0.2-0.9 0.6l-3.7 8.4h-2.4c-1.7 0-3 1.3-3 3v7c0 1.7 1.3 3 3 3h14.3c0 0 0 0 0 0 1.5 0 2.7-1.1 3-2.5l1.4-9c0.1-0.8-0.1-1.6-0.6-2.3zM6 21h-2c-0.6 0-1-0.4-1-1v-7c0-0.6 0.4-1 1-1h2v9zM19.3 20.2c-0.1 0.5-0.5 0.8-1 0.8 0 0 0 0 0 0h-10.3v-9.8l3.6-8.1c0.8 0.3 1.4 1 1.4 1.9v4c0 0.6 0.4 1 1 1h5.7c0.1 0 0.1 0 0.2 0 0.3 0 0.5 0.2 0.7 0.4s0.2 0.5 0.2 0.7l-1.5 9.1z"></path>
</svg>
