<!-- Generated by IcoMoon.io -->
<svg version="1.1" xmlns="http://www.w3.org/2000/svg" width="24" height="24" viewBox="0 0 24 24">
<title>thumbs-down</title>
<path d="M23 3.9c-0.2-1.7-1.6-2.9-3.3-2.9 0 0 0 0-0.1 0h-13.9c-1.5 0-2.7 1.1-3 2.5l-1.4 9c-0.2 1.6 0.9 3.2 2.5 3.4 0.2 0 0.3 0 0.5 0h4.7v3c0 2.2 1.8 4 4 4 0.4 0 0.8-0.2 0.9-0.6l3.7-8.4h2c1.7 0 3.1-1.2 3.3-2.9 0 0 0-0.1 0-0.1v-6.9c0.1 0 0.1-0.1 0.1-0.1zM16 12.8l-3.6 8.1c-0.8-0.3-1.4-1-1.4-1.9v-4c0-0.6-0.4-1-1-1h-5.7c0 0-0.1 0-0.2 0-0.5-0.1-0.9-0.6-0.8-1.1l1.4-9c0.1-0.5 0.5-0.9 1-0.9h10.3v9.8zM21 10.9c-0.1 0.6-0.7 1.1-1.3 1.1h-1.7v-9h1.7c0.6-0.1 1.2 0.4 1.3 1.1v6.8z"></path>
</svg>
