<!-- Generated by IcoMoon.io -->
<svg version="1.1" xmlns="http://www.w3.org/2000/svg" width="24" height="24" viewBox="0 0 24 24">
<title>truck</title>
<path d="M23.7 10.3l-3-3c-0.2-0.2-0.4-0.3-0.7-0.3h-3v-4c0-0.6-0.4-1-1-1h-15c-0.6 0-1 0.4-1 1v13c0 0.6 0.4 1 1 1h1.4c-0.3 0.5-0.4 1-0.4 1.5 0 1.9 1.6 3.5 3.5 3.5s3.5-1.6 3.5-3.5c0-0.5-0.1-1-0.4-1.5h6.7c-0.2 0.5-0.4 1-0.4 1.5 0 1.9 1.6 3.5 3.5 3.5s3.5-1.6 3.5-3.5c0-0.5-0.1-1-0.4-1.5h1.5c0.6 0 1-0.4 1-1v-5c0-0.3-0.1-0.5-0.3-0.7zM2 4h13v11h-13v-11zM7 18.5c0 0.8-0.7 1.5-1.5 1.5s-1.5-0.7-1.5-1.5 0.7-1.5 1.5-1.5 1.5 0.7 1.5 1.5zM20 18.5c0 0.8-0.7 1.5-1.5 1.5s-1.5-0.7-1.5-1.5 0.7-1.5 1.5-1.5 1.5 0.7 1.5 1.5zM22 15h-5v-6h2.6l2.4 2.4v3.6z"></path>
</svg>
