<!-- Generated by IcoMoon.io -->
<svg version="1.1" xmlns="http://www.w3.org/2000/svg" width="24" height="24" viewBox="0 0 24 24">
<title>video</title>
<path d="M23.5 6.1c-0.3-0.2-0.7-0.1-1 0.1l-5.5 3.9v-3.1c0-1.7-1.3-3-3-3h-11c-1.7 0-3 1.3-3 3v10c0 1.7 1.3 3 3 3h11c1.7 0 3-1.3 3-3v-3.1l5.4 3.9c0.2 0.1 0.4 0.2 0.6 0.2s0.3 0 0.5-0.1c0.3-0.2 0.5-0.5 0.5-0.9v-10c0-0.4-0.2-0.7-0.5-0.9zM15 17c0 0.6-0.4 1-1 1h-11c-0.6 0-1-0.4-1-1v-10c0-0.6 0.4-1 1-1h11c0.6 0 1 0.4 1 1v10zM22 15.1l-4.3-3.1 4.3-3.1v6.2z"></path>
</svg>
