<!-- Generated by IcoMoon.io -->
<svg version="1.1" xmlns="http://www.w3.org/2000/svg" width="24" height="24" viewBox="0 0 24 24">
<title>video-off</title>
<path d="M23.5 6.1c-0.3-0.2-0.7-0.1-1 0.1l-5.4 3.8-0.1-0.1v-2.9c0-1.7-1.3-3-3-3h-3.3c-0.6 0-1 0.4-1 1s0.4 1 1 1h3.3c0.6 0 1 0.4 1 1v3.3c0 0.3 0.1 0.5 0.3 0.7l1 1c0.3 0.3 0.9 0.4 1.3 0.1l4.4-3.1v8c0 0.6 0.4 1 1 1s1-0.4 1-1v-10c0-0.4-0.2-0.7-0.5-0.9z"></path>
<path d="M16.7 15.3c0 0 0 0 0 0l-11-11c0 0 0 0 0 0l-4-4c-0.4-0.4-1-0.4-1.4 0s-0.4 1 0 1.4l2.3 2.3c-1.5 0.2-2.6 1.5-2.6 3v10c0 1.7 1.3 3 3 3h11c1.2 0 2.3-0.8 2.8-1.8l5.5 5.5c0.2 0.2 0.5 0.3 0.7 0.3s0.5-0.1 0.7-0.3c0.4-0.4 0.4-1 0-1.4l-7-7zM15 17c0 0.6-0.4 1-1 1h-11c-0.6 0-1-0.4-1-1v-10c0-0.6 0.4-1 1-1h1.6l10.4 10.4v0.6z"></path>
</svg>
