<!-- Generated by IcoMoon.io -->
<svg version="1.1" xmlns="http://www.w3.org/2000/svg" width="24" height="24" viewBox="0 0 24 24">
<title>voicemail</title>
<path d="M18.5 6c-3 0-5.5 2.5-5.5 5.5 0 1.3 0.5 2.5 1.3 3.5h-4.6c0.8-1 1.3-2.2 1.3-3.5 0-3-2.5-5.5-5.5-5.5s-5.5 2.5-5.5 5.5c0 3 2.5 5.5 5.5 5.5h13c3 0 5.5-2.5 5.5-5.5s-2.5-5.5-5.5-5.5zM2 11.5c0-1.9 1.6-3.5 3.5-3.5s3.5 1.6 3.5 3.5-1.6 3.5-3.5 3.5-3.5-1.6-3.5-3.5zM18.5 15c-1.9 0-3.5-1.6-3.5-3.5s1.6-3.5 3.5-3.5 3.5 1.6 3.5 3.5-1.6 3.5-3.5 3.5z"></path>
</svg>
