<!-- Generated by IcoMoon.io -->
<svg version="1.1" xmlns="http://www.w3.org/2000/svg" width="24" height="24" viewBox="0 0 24 24">
<title>watch</title>
<path d="M20 12c0-2.3-1-4.3-2.5-5.8l-0.3-3.5c-0.2-1.5-1.4-2.7-3-2.7 0 0 0 0 0 0h-4.4c-1.5 0-2.8 1.2-3 2.7l-0.3 3.5c-1.5 1.4-2.5 3.5-2.5 5.8s1 4.4 2.5 5.8l0.3 3.5c0.2 1.5 1.5 2.7 3 2.7 0 0 0 0 0 0h4.3c0 0 0 0 0 0 1.6 0 2.8-1.2 3-2.7l0.3-3.4c1.6-1.5 2.6-3.6 2.6-5.9zM8.8 2.9c0-0.5 0.5-0.9 1-0.9h4.4c0.5 0 1 0.4 1 0.9l0.2 1.8c-1.1-0.4-2.2-0.7-3.4-0.7s-2.3 0.3-3.3 0.7l0.1-1.8zM6 12c0-3.3 2.7-6 6-6s6 2.7 6 6-2.7 6-6 6-6-2.7-6-6zM15.2 21.1c0 0.5-0.5 0.9-1 0.9 0 0 0 0 0 0h-4.4c0 0 0 0 0 0-0.5 0-0.9-0.4-1-0.9l-0.2-1.8c1 0.5 2.1 0.7 3.3 0.7s2.3-0.3 3.3-0.7v1.8z"></path>
<path d="M12.8 14.2c0.2 0.2 0.5 0.3 0.7 0.3s0.5-0.1 0.7-0.3c0.4-0.4 0.4-1 0-1.4l-1.2-1.2v-2.6c0-0.6-0.4-1-1-1s-1 0.4-1 1v3c0 0.3 0.1 0.5 0.3 0.7l1.5 1.5z"></path>
</svg>
