<!-- Generated by IcoMoon.io -->
<svg version="1.1" xmlns="http://www.w3.org/2000/svg" width="24" height="24" viewBox="0 0 24 24">
<title>wind</title>
<path d="M14 15c0 0 0 0 0 0h-12c-0.6 0-1 0.4-1 1s0.4 1 1 1h12c0 0 0 0 0 0 0.3 0 0.5 0.1 0.7 0.3s0.3 0.4 0.3 0.7c0 0.3-0.1 0.5-0.3 0.7s-0.4 0.3-0.7 0.3c0 0 0 0 0 0-0.3 0-0.5-0.1-0.7-0.3-0.4-0.4-1-0.4-1.4 0s-0.4 1 0 1.4c0.6 0.6 1.3 0.9 2.1 0.9 0 0 0 0 0 0 0.8 0 1.5-0.3 2.1-0.9s0.9-1.3 0.9-2.1c0-0.8-0.3-1.6-0.9-2.1-0.5-0.6-1.3-0.9-2.1-0.9z"></path>
<path d="M2 9h9c0 0 0 0 0 0 0.8 0 1.6-0.3 2.1-0.9 1.2-1.2 1.2-3.1 0-4.2-0.5-0.6-1.3-0.9-2.1-0.9s-1.6 0.3-2.1 0.9c-0.4 0.4-0.4 1 0 1.4s1 0.4 1.4 0c0.2-0.2 0.4-0.3 0.7-0.3 0 0 0 0 0 0 0.3 0 0.5 0.1 0.7 0.3 0.4 0.4 0.4 1 0 1.4-0.2 0.2-0.4 0.3-0.7 0.3 0 0 0 0 0 0h-9c-0.6 0-1 0.4-1 1s0.4 1 1 1z"></path>
<path d="M22 7c-1.4-1.4-3.6-1.4-4.9 0-0.4 0.4-0.4 1 0 1.4s1 0.4 1.4 0c0.6-0.6 1.5-0.6 2.1 0s0.6 1.5 0 2.1c-0.3 0.3-0.7 0.4-1.1 0.4h-17.5c-0.6 0-1 0.4-1 1s0.4 1 1 1h17.5c0.9 0 1.8-0.4 2.5-1 1.3-1.3 1.3-3.5 0-4.9z"></path>
</svg>
