<!-- Generated by IcoMoon.io -->
<svg version="1.1" xmlns="http://www.w3.org/2000/svg" width="24" height="24" viewBox="0 0 24 24">
<title>x-square</title>
<path d="M19 2h-14c-1.7 0-3 1.3-3 3v14c0 1.7 1.3 3 3 3h14c1.7 0 3-1.3 3-3v-14c0-1.7-1.3-3-3-3zM20 19c0 0.6-0.4 1-1 1h-14c-0.6 0-1-0.4-1-1v-14c0-0.6 0.4-1 1-1h14c0.6 0 1 0.4 1 1v14z"></path>
<path d="M15.7 8.3c-0.4-0.4-1-0.4-1.4 0l-2.3 2.3-2.3-2.3c-0.4-0.4-1-0.4-1.4 0s-0.4 1 0 1.4l2.3 2.3-2.3 2.3c-0.4 0.4-0.4 1 0 1.4 0.2 0.2 0.4 0.3 0.7 0.3s0.5-0.1 0.7-0.3l2.3-2.3 2.3 2.3c0.2 0.2 0.5 0.3 0.7 0.3s0.5-0.1 0.7-0.3c0.4-0.4 0.4-1 0-1.4l-2.3-2.3 2.3-2.3c0.4-0.4 0.4-1 0-1.4z"></path>
</svg>
