<!-- Generated by IcoMoon.io -->
<svg version="1.1" xmlns="http://www.w3.org/2000/svg" width="24" height="24" viewBox="0 0 24 24">
<title>youtube</title>
<path d="M23.5 6.2c0 0 0 0 0 0-0.3-1.4-1.4-2.4-2.7-2.8-1.7-0.4-8.1-0.4-8.8-0.4s-7.1 0-8.9 0.5c-1.3 0.4-2.3 1.4-2.6 2.8-0.3 1.8-0.5 3.6-0.5 5.4s0.1 3.7 0.5 5.6c0.4 1.3 1.4 2.3 2.6 2.6 1.8 0.5 8.1 0.5 8.9 0.5s7.1 0 8.9-0.5c1.3-0.4 2.3-1.4 2.7-2.8 0.3-1.8 0.5-3.6 0.5-5.4-0.1-1.8-0.2-3.6-0.6-5.5zM21.6 16.8c-0.2 0.6-0.6 1.1-1.2 1.3-1.2 0.3-5.6 0.4-8.3 0.4s-7.3-0.2-8.4-0.5c-0.6-0.2-1.1-0.6-1.2-1.1-0.4-1.7-0.5-3.4-0.5-5.2 0-1.7 0.1-3.4 0.4-5 0.2-0.6 0.6-1.1 1.2-1.3 1.2-0.3 5.7-0.4 8.4-0.4 1.9 0 7 0.1 8.3 0.4 0.6 0.2 1.1 0.6 1.2 1.3 0.4 1.6 0.5 3.3 0.5 5.1 0 1.7-0.1 3.4-0.4 5z"></path>
<path d="M16 10.9l-5.8-3.3c-0.3-0.2-0.7-0.2-1 0s-0.4 0.5-0.4 0.9v6.5c0 0.4 0.2 0.7 0.5 0.9 0.1 0.1 0.3 0.1 0.5 0.1s0.3 0 0.5-0.1l5.8-3.3c0.3-0.2 0.5-0.5 0.5-0.9-0.1-0.3-0.3-0.6-0.6-0.8zM10.8 13.3v-3.1l2.7 1.6-2.7 1.5z"></path>
</svg>
