<!-- Generated by IcoMoon.io -->
<svg version="1.1" xmlns="http://www.w3.org/2000/svg" width="24" height="24" viewBox="0 0 24 24">
<title>zap-off</title>
<path d="M11.3 5.6l0.2-0.3-0.2 1.4c-0.1 0.5 0.3 1 0.9 1.1 0 0 0.1 0 0.1 0 0.5 0 0.9-0.4 1-0.9l0.7-4.8c0.1-0.4-0.2-0.9-0.6-1-0.4-0.2-0.9-0.1-1.2 0.3l-2.4 2.9c-0.4 0.4-0.3 1 0.1 1.4 0.5 0.3 1.1 0.3 1.4-0.1z"></path>
<path d="M15.7 11h3.2l-1.1 1.3c-0.4 0.4-0.3 1.1 0.1 1.4 0.2 0.2 0.4 0.2 0.6 0.2 0.3 0 0.6-0.1 0.8-0.4l2.4-2.9c0.2-0.3 0.3-0.7 0.1-1.1-0.1-0.3-0.4-0.5-0.8-0.5h-5.3c-0.6 0-1 0.4-1 1s0.4 1 1 1z"></path>
<path d="M23.7 22.3l-22-22c-0.4-0.4-1-0.4-1.4 0s-0.4 1 0 1.4l6.4 6.4-4.4 5.3c-0.2 0.3-0.3 0.7-0.1 1.1 0.1 0.3 0.4 0.5 0.8 0.5h7.9l-0.9 6.9c-0.1 0.4 0.2 0.9 0.6 1 0.1 0.1 0.3 0.1 0.4 0.1 0.3 0 0.6-0.1 0.8-0.4l4.3-5.2 6.2 6.2c0.2 0.2 0.5 0.3 0.7 0.3s0.5-0.1 0.7-0.3c0.4-0.3 0.4-0.9 0-1.3zM5.1 13l2.9-3.5 3.5 3.5h-6.4zM12.4 18.7l0.5-4.4 1.7 1.7-2.2 2.7z"></path>
</svg>
